<svg width="78" height="79" viewBox="0 0 78 79" fill="none" xmlns="http://www.w3.org/2000/svg">
<ellipse cx="39" cy="39.0017" rx="39" ry="39.0017" fill="#3AB1C8"/>
<path d="M45.1828 40.1831C46.8168 38.8976 48.0095 37.1347 48.5949 35.1397C49.1803 33.1447 49.1294 31.0169 48.4492 29.0522C47.7689 27.0876 46.4933 25.3838 44.7996 24.1779C43.106 22.972 41.0786 22.324 38.9995 22.324C36.9204 22.324 34.893 22.972 33.1994 24.1779C31.5057 25.3838 30.2301 27.0876 29.5499 29.0522C28.8696 31.0169 28.8187 33.1447 29.4041 35.1397C29.9895 37.1347 31.1822 38.8976 32.8162 40.1831C30.0163 41.3049 27.5733 43.1654 25.7477 45.5663C23.922 47.9673 22.7821 50.8186 22.4495 53.8165C22.4254 54.0353 22.4447 54.2568 22.5062 54.4682C22.5677 54.6797 22.6703 54.8769 22.808 55.0487C23.0862 55.3956 23.4908 55.6178 23.9328 55.6665C24.3749 55.7151 24.8181 55.5861 25.165 55.3079C25.512 55.0298 25.7342 54.6252 25.7828 54.1831C26.1488 50.9251 27.7023 47.9162 30.1465 45.7311C32.5908 43.5461 35.7543 42.3382 39.0328 42.3382C42.3113 42.3382 45.4749 43.5461 47.9191 45.7311C50.3634 47.9162 51.9169 50.9251 52.2828 54.1831C52.3282 54.5927 52.5236 54.9709 52.8314 55.2448C53.1391 55.5188 53.5375 55.669 53.9495 55.6665H54.1328C54.5697 55.6162 54.9691 55.3953 55.2438 55.0519C55.5185 54.7085 55.6464 54.2704 55.5995 53.8331C55.2653 50.8268 54.1193 47.9681 52.2843 45.5635C50.4492 43.1588 47.9944 41.2989 45.1828 40.1831ZM38.9995 38.9998C37.681 38.9998 36.392 38.6088 35.2957 37.8763C34.1994 37.1437 33.3449 36.1025 32.8403 34.8844C32.3357 33.6662 32.2037 32.3257 32.4609 31.0325C32.7182 29.7393 33.3531 28.5514 34.2855 27.6191C35.2178 26.6867 36.4057 26.0518 37.6989 25.7946C38.9921 25.5373 40.3326 25.6694 41.5507 26.1739C42.7689 26.6785 43.8101 27.533 44.5426 28.6293C45.2752 29.7257 45.6662 31.0146 45.6662 32.3331C45.6662 34.1012 44.9638 35.7969 43.7136 37.0472C42.4633 38.2974 40.7676 38.9998 38.9995 38.9998Z" fill="white"/>
</svg>
