<svg width="94" height="30" viewBox="0 0 94 30" fill="none" xmlns="http://www.w3.org/2000/svg">
<g clip-path="url(#clip0)">
<path d="M13.6885 12.8501C13.8011 12.7566 13.933 12.728 14.0851 12.8501C14.1117 12.8751 14.1339 12.905 14.1488 12.938L16.5501 18.2551C16.6446 18.4919 16.6492 18.7609 16.4663 19.0384C16.2657 19.3132 16.0135 19.3946 15.7616 19.3929H11.633C11.553 19.3921 11.4739 19.3752 11.4005 19.3434C11.3271 19.312 11.2602 19.2672 11.2032 19.2113C11.0259 19.0268 10.9707 18.7927 11.0579 18.5481L13.6246 12.9376C13.6399 12.9047 13.662 12.8751 13.6885 12.8501ZM3.75436 24.4959C3.69225 24.6059 3.61783 24.7085 3.53254 24.8016C3.34378 25.0046 3.13069 25.1433 2.91247 25.2251L1.03574 25.8996C0.853851 25.9649 0.685322 26.0626 0.538333 26.1879C0.39224 26.3142 0.271097 26.4666 0.181165 26.6374C0.0980746 26.7988 0.0415661 26.9726 0.013811 27.152C-0.00981402 27.3102 -0.00155108 27.4374 0.0266128 27.5598C0.0547865 27.6829 0.103408 27.8004 0.170458 27.9074C0.23769 28.0138 0.322581 28.108 0.421488 28.1859C0.626316 28.3489 0.879092 28.4266 1.12186 28.4248L8.68757 28.4286C8.80834 28.4283 8.92818 28.4076 9.04206 28.3675C9.15591 28.3269 9.26213 28.2675 9.35629 28.1917C9.54594 28.0395 9.67773 27.8271 9.72975 27.5897C9.78317 27.3529 9.74872 27.0383 9.62303 26.7238C9.55544 26.5626 9.46061 26.4142 9.34267 26.2851C9.08268 26.0054 8.72249 25.851 8.40465 25.6452C8.25381 25.554 8.14495 25.4071 8.1016 25.2364C8.05789 25.0654 8.08335 24.884 8.17248 24.7315L8.71876 23.8382C8.77835 23.7401 8.86086 23.6575 8.95199 23.5876C9.04311 23.5178 9.14634 23.4626 9.25667 23.4335C9.36723 23.4042 9.48291 23.4247 9.59789 23.4247H18.2563C18.4064 23.4247 18.5574 23.443 18.6976 23.4976C18.839 23.554 18.9675 23.6382 19.0757 23.7452C19.1838 23.8519 19.2757 23.9772 19.3328 24.118L20.8637 27.8889C20.9052 27.9909 20.9761 28.0802 21.0556 28.1569C21.2244 28.3191 21.4431 28.4082 21.6524 28.4123L30.3898 28.4161C30.5533 28.4161 30.7172 28.3897 30.87 28.3315C31.0234 28.2737 31.1644 28.187 31.2852 28.0762C31.6542 27.7411 31.7746 27.2345 31.6769 26.7948C31.6459 26.6569 31.5938 26.5245 31.5226 26.4024C31.4516 26.2797 31.362 26.1688 31.257 26.0734C31.1523 25.979 31.0342 25.8966 30.9042 25.8414L29.7957 25.3705C29.5903 25.284 29.403 25.1577 29.227 25.0208C29.0507 24.8837 28.8899 24.7278 28.7476 24.5558C28.6051 24.3838 28.4679 24.2034 28.3801 23.9986L19.0114 2.14984C18.9504 2.00755 18.8333 1.89548 18.7154 1.79493C18.4681 1.58475 18.1606 1.47117 17.8647 1.46792L9.50944 1.47954C9.37749 1.47912 9.24629 1.49936 9.12062 1.53953C8.99506 1.58059 8.87705 1.64184 8.77125 1.72088C8.66581 1.79969 8.5734 1.89607 8.4988 2.00453C8.42402 2.1134 8.36717 2.23354 8.3304 2.36037C8.24998 2.61449 8.2771 2.97452 8.43049 3.33024C8.51195 3.51324 8.62756 3.67906 8.77113 3.81884C8.91416 3.95869 9.08477 4.06901 9.26784 4.14992L10.3518 4.62934C10.461 4.67758 10.5707 4.72513 10.6687 4.79337C10.7668 4.86141 10.8556 4.94195 10.9329 5.03296C11.0099 5.12398 11.0818 5.2221 11.1261 5.33254L11.657 6.65686C11.777 7.01142 11.7571 7.41144 11.5614 7.79111L3.75436 24.4959ZM52.9161 17.2268C53.0155 17.3044 53.1009 17.3995 53.2072 17.5539C53.3132 17.7093 53.44 17.9239 53.5621 18.1016C53.6836 18.2791 53.8002 18.4189 53.9411 18.5297C54.2294 18.755 54.6094 18.8481 54.9613 18.8006C55.1407 18.7773 55.3151 18.718 55.4722 18.6286C55.6288 18.5386 55.7735 18.4221 55.8789 18.2754L59.1228 13.7781C59.3293 13.4836 59.4114 13.1172 59.3775 12.7732C59.36 12.5974 59.312 12.4259 59.2356 12.2665C59.1588 12.1072 59.055 11.9624 58.9287 11.8386C58.5086 11.4387 57.9836 11.319 57.462 11.4568C57.2934 11.5047 57.1345 11.5838 56.7938 11.7984C56.4541 12.013 55.9329 12.3629 55.5833 12.5857C55.2333 12.8088 55.0556 12.9044 54.8698 12.9811C54.4922 13.1323 54.0909 13.2226 53.6952 13.2321H45.3893L45.3864 5.51749L53.7175 5.51435C54.3187 5.50993 54.942 5.60538 55.5453 5.83939C55.8359 5.95122 56.1193 6.08502 56.3792 6.25614L58.903 7.91654C59.3428 8.21845 59.88 8.26774 60.3887 7.86458C60.6045 7.67312 60.8435 7.37331 61.0118 7.11825C61.2417 6.75125 61.2771 6.39646 61.1542 6.01272C61.113 5.89356 61.0517 5.78242 60.9798 5.6785L58.6466 2.30864C58.5289 2.13845 58.388 1.98407 58.2243 1.8577C57.8826 1.59463 57.4709 1.45525 57.0726 1.45257L36.237 1.48617C36.0575 1.4864 35.8757 1.46768 35.7039 1.51988C35.5319 1.57184 35.3722 1.66508 35.2342 1.78272C35.0962 1.9006 34.9809 2.04267 34.894 2.20192C34.72 2.52327 34.6727 2.89802 34.7613 3.25247C34.8058 3.42804 34.8824 3.59386 34.9873 3.74154C35.0923 3.88883 35.2219 4.02065 35.3756 4.11528L36.237 4.64585C36.3388 4.70756 36.4297 4.78564 36.506 4.87695C36.6578 5.06262 36.7404 5.2952 36.7396 5.53493L36.7492 24.0171C36.7501 24.1924 36.7191 24.3664 36.6579 24.5307C36.5332 24.8443 36.3436 25.0822 35.9194 25.3123C35.7187 25.425 35.4616 25.5482 35.2568 25.6685C35.0517 25.7879 34.8986 25.9044 34.775 26.0473C34.519 26.3434 34.4042 26.7376 34.4337 27.1047C34.4635 27.4888 34.6432 27.8458 34.934 28.0987C35.2327 28.3639 35.622 28.4697 35.9887 28.4582L56.8646 28.4609C57.093 28.4609 57.322 28.4366 57.541 28.3715C57.7605 28.3065 57.9684 28.2073 58.1568 28.0773C58.3448 27.9484 58.5175 27.7929 58.651 27.6076L61.15 24.1512C61.4255 23.7639 61.4935 23.2968 61.3132 22.8336C61.2549 22.6905 61.1737 22.5577 61.0728 22.4406C60.9717 22.3241 60.8512 22.2241 60.6811 22.1348C60.3398 21.9513 59.8273 21.8503 59.3816 21.9715C59.159 22.0271 58.9559 22.1387 58.7605 22.2598L55.9919 23.9773C55.5181 24.2714 54.9425 24.3559 54.4018 24.4638C53.8572 24.5739 53.303 24.6292 52.7474 24.6289L45.3864 24.6132L45.3893 17.051H52.5837C52.7095 17.0511 52.8169 17.1503 52.9161 17.2268ZM85.3163 1.8956C85.2208 1.96076 85.1068 1.9933 84.9912 1.98837C84.9339 1.98569 84.8775 1.9736 84.7705 1.93617C84.6635 1.89886 84.5065 1.8362 84.3487 1.77575C84.1903 1.7153 84.0303 1.65706 83.1619 1.48884C82.293 1.32063 80.715 1.04302 79.1341 1.05802C77.5533 1.07301 75.969 1.38108 74.477 1.93396C72.9856 2.48662 71.5859 3.28374 70.4084 4.19828C69.2308 5.11259 68.2754 6.14419 67.4875 7.28961C66.6994 8.43525 66.0788 9.69471 65.6554 11.0168C65.232 12.3389 65.0063 13.7238 64.9771 15.0733C64.9478 16.4229 65.1151 17.7365 65.4794 18.994C65.8436 20.2515 66.4052 21.4522 67.1436 22.529C67.8822 23.6057 68.7978 24.5569 69.6015 25.2484C70.4048 25.9387 71.0965 26.3689 71.8117 26.7494C72.5267 27.131 73.2653 27.4649 74.025 27.7437C74.784 28.0222 75.5646 28.2475 76.6697 28.4348C77.7753 28.6221 79.2061 28.7717 80.6358 28.7514C82.0678 28.7315 83.4925 28.5422 84.8799 28.1873C86.265 27.8329 87.6068 27.3143 88.6596 26.8222C89.7127 26.3301 90.4765 25.863 91.0353 25.4931C91.5944 25.123 91.9487 24.8493 92.1535 24.6775C92.3592 24.5056 92.4155 24.4357 92.4616 24.359C92.5077 24.2822 92.5437 24.1998 92.5675 24.1144C92.5908 24.029 92.6016 23.9395 92.6107 23.8026C92.6204 23.6647 92.6281 23.4803 92.5946 23.3035C92.5614 23.1212 92.4801 22.9509 92.3591 22.8104C92.2306 22.66 92.049 22.5277 91.9303 22.426C91.6921 22.2192 91.6673 22.1027 91.6134 21.9345C91.5919 21.8492 91.5847 21.7607 91.5842 21.6723L91.5724 18.1344C91.569 17.7306 91.7159 17.3401 91.9845 17.0385L92.7601 16.1666C93.0065 15.886 93.1192 15.5179 93.1014 15.1723C93.0826 14.8093 92.9247 14.4675 92.6605 14.2177C92.3854 13.9564 92.0242 13.8298 91.6817 13.8312L82.5696 13.8324C82.4173 13.8324 82.2664 13.8674 82.1244 13.9232C81.9828 13.9795 81.8523 14.0601 81.7386 14.1615C81.6251 14.2631 81.5303 14.3838 81.4584 14.518C81.3143 14.7891 81.2707 15.1022 81.3352 15.4022C81.3677 15.5506 81.426 15.6933 81.5077 15.8214C81.5889 15.9507 81.6928 16.0642 81.8144 16.1565C82.1545 16.4866 82.5812 16.7176 82.8164 16.9166C83.0519 17.1167 83.1453 17.2242 83.2213 17.3449C83.3778 17.5905 83.4464 17.8758 83.4416 18.1536L83.44 22.8506C83.44 23.0487 83.4109 23.2468 83.3506 23.4361C83.29 23.6251 83.1999 23.8033 83.0837 23.9643C82.967 24.1256 82.8264 24.2684 82.6667 24.3876C82.5074 24.507 82.3303 24.6041 81.916 24.712C81.5017 24.8207 80.8497 24.9391 80.1966 24.938C79.5436 24.9371 78.8889 24.8157 78.2717 24.5915C77.6537 24.3675 77.0785 24.0398 76.5708 23.6226C76.0658 23.2072 75.6349 22.7022 75.3107 22.2052C74.9866 21.7072 74.7689 21.2147 74.5755 20.7151C74.382 20.2164 74.214 19.7082 74.072 19.1926C73.93 18.6779 73.8161 18.1546 73.7236 17.2818C73.6317 16.4099 73.5612 15.1881 73.6633 13.979C73.7653 12.7698 74.0385 11.5726 74.4616 10.43C74.885 9.28725 75.4575 8.19915 75.9949 7.42585C76.5319 6.65256 77.0335 6.19407 77.6012 5.84206C78.7252 5.13991 80.1336 4.86754 81.4447 5.14491C82.0945 5.2808 82.714 5.5483 83.3654 5.9325C84.0166 6.31648 84.6994 6.81717 85.3671 7.33495C86.0346 7.85272 86.6875 8.38759 87.3191 8.94582C87.4557 9.08559 87.6151 9.20116 87.7905 9.2876C88.1443 9.46038 88.5468 9.50662 88.9307 9.41861C89.3147 9.33018 89.6564 9.11216 89.8982 8.80132C90.1397 8.49038 90.267 8.106 90.2588 7.71253C90.2218 7.04488 90.0905 6.38583 89.8685 5.75499C89.7572 5.44018 89.6372 5.12608 89.4699 4.83708L87.3983 1.25518C87.3348 1.14502 87.2515 1.04751 87.1526 0.967576C86.8464 0.730658 86.4579 0.675788 86.0761 0.859812C85.9614 0.916658 85.8569 0.994313 85.7665 1.12591C85.6762 1.25739 85.6003 1.44315 85.5498 1.56161C85.4993 1.68031 85.4742 1.73227 85.4402 1.77807C85.4057 1.82385 85.3639 1.86357 85.3163 1.8956Z" fill="#C9C9C9"/>
</g>
<defs>
<clipPath id="clip0">
</clipPath>
</defs>
</svg>
