<svg width="5" height="8" viewBox="0 0 5 8" fill="none" xmlns="http://www.w3.org/2000/svg">
<path d="M0.922809 0.602398C0.986449 0.538234 1.06216 0.487306 1.14559 0.452551L0.922809 0.602398ZM0.922809 0.602398C0.795306 0.730662 0.72374 0.904169 0.72374 1.08502C0.72374 1.26588 0.795306 1.43939 0.922809 1.56765V0.602398ZM4.4454 4.12209L4.44539 4.12207L4.44188 4.12562L1.5477 7.05393C1.53097 7.06865 1.51169 7.08022 1.49081 7.08808C1.46798 7.09667 1.44368 7.10065 1.41932 7.09979C1.39494 7.09893 1.37099 7.09325 1.34882 7.08308L1.14027 7.53751L1.34882 7.08308C1.32666 7.07291 1.30673 7.05845 1.29019 7.04053L1.28411 7.03394L1.2778 7.02758C1.26069 7.01033 1.24716 6.98988 1.23797 6.96739C1.22879 6.94491 1.22413 6.92083 1.22427 6.89653L1.22428 6.89575C1.22448 6.84755 1.24353 6.80136 1.27732 6.76703C1.27748 6.76687 1.27764 6.76671 1.2778 6.76654L3.69976 4.3446L4.05331 3.99104L3.69976 3.63749L1.27741 1.21515C1.2773 1.21503 1.27718 1.21491 1.27706 1.2148C1.2429 1.18025 1.22374 1.13362 1.22374 1.08502C1.22374 1.03626 1.24304 0.989481 1.27741 0.954899L1.27781 0.954499C1.29497 0.937199 1.31538 0.923468 1.33787 0.914097C1.36037 0.904727 1.38449 0.899902 1.40886 0.899902C1.43322 0.899902 1.45735 0.904727 1.47984 0.914097L1.67213 0.452551L1.47984 0.914097C1.50233 0.923468 1.52275 0.937199 1.53991 0.954499L1.5399 0.954502L1.54135 0.955952L4.44395 3.85855L4.44395 3.85855L4.4454 3.86C4.4627 3.87715 4.47643 3.89757 4.4858 3.92006L4.94221 3.72991L4.4858 3.92006C4.49518 3.94255 4.5 3.96668 4.5 3.99104C4.5 4.01541 4.49518 4.03953 4.4858 4.06203C4.47643 4.08452 4.4627 4.10493 4.4454 4.12209Z" fill="#C65EA0" stroke="#C65EA0"/>
</svg>
