<svg width="124" height="40" viewBox="0 0 124 40" fill="none" xmlns="http://www.w3.org/2000/svg">
<path d="M26.8747 33.6129C25.7189 33.6129 24.4179 33.6129 24.4179 33.6129V26.0473C24.4179 26.0473 25.6797 26.0473 26.8747 26.0473C28.5583 26.0473 29.338 27.3026 29.338 29.549C29.338 32.6338 28.4025 33.6129 26.8747 33.6129ZM24.4179 15.0708C24.4179 15.0708 25.6588 15.0708 26.8147 15.0708C28.0519 15.0708 29.0533 15.9812 29.0533 18.4895C29.0533 21.0243 27.8961 21.9012 26.8147 21.9012C25.6196 21.9012 24.4179 21.9012 24.4179 21.9012V15.0708ZM30.9744 23.6884V23.6677C31.9485 22.984 33.5056 21.8081 33.5056 18.0289C33.5056 13.146 30.9579 10.9346 27.5162 10.9346C26.3504 10.9346 20 10.9346 20 10.9346V37.7468C20 37.7468 24.189 37.7468 27.4769 37.7468C31.7145 37.7468 33.7781 34.6055 33.7781 29.9252C33.7781 25.5587 32.0651 24.353 30.9744 23.6884Z" fill="#C9C9C9"/>
<path d="M41.9024 15.0708C41.9024 15.0708 43.1425 15.0708 44.2992 15.0708C45.5364 15.0708 46.5343 15.9812 46.5343 18.4895C46.5343 21.0243 45.3806 21.9012 44.2992 21.9012C43.104 21.9012 41.9024 21.9012 41.9024 21.9012V15.0708ZM50.9077 28.7736C50.9077 25.4323 49.8706 24.4937 48.4588 23.6884V23.6677C49.433 22.984 50.9765 21.8081 50.9765 18.0289C50.9765 13.146 48.4424 10.9346 45.0007 10.9346C43.8342 10.9346 37.4844 10.9346 37.4844 10.9346V37.7468H41.8994L41.9023 26.0473C41.9023 26.0473 43.1039 26.0473 44.2983 26.0473C45.5549 26.0473 46.4532 27.0914 46.4532 29.4611V37.747H50.9053L50.9077 28.7736Z" fill="#C9C9C9"/>
<path d="M59.521 8.51079C59.521 6.4946 61.372 6.2342 62.3947 6.2342C63.4175 6.2342 65.2614 6.48956 65.2614 8.51079L65.2597 21.9011H59.5179L59.521 8.51079ZM62.3947 2C60.5273 2 55.1094 2.42342 55.1094 7.84486V37.7504H59.5265V26.0494H65.2619L65.2604 37.7455H69.6812V7.84486C69.6813 2.41334 64.2563 2 62.3947 2Z" fill="#C9C9C9"/>
<path d="M82.9131 10.9288V32.0358C82.9131 33.1099 82.0249 33.8275 80.7054 33.8275C79.3799 33.8275 78.5082 33.1087 78.5082 32.0358L78.5048 10.9288L74.0889 10.9345L74.0879 32.7409C74.0879 36.8929 78.3564 38 80.7102 38C83.0426 38 87.3295 36.8872 87.3295 32.736V10.9288H82.9131Z" fill="#C9C9C9"/>
<path d="M100.564 37.7434L100.562 16.6456C100.562 15.5715 99.6744 14.854 98.3555 14.854C97.0301 14.854 96.1569 15.5735 96.1569 16.6456L96.1555 37.7434L91.7383 37.7468V15.9404C91.7383 11.7885 96.0075 10.6814 98.3613 10.6814C100.694 10.6814 104.979 11.7942 104.979 15.9454V37.7432H100.564" fill="#C9C9C9"/>
</svg>
