<svg width="16" height="10" viewBox="0 0 16 10" fill="none" xmlns="http://www.w3.org/2000/svg">
<path d="M8.75 8H1.25C1.05109 8 0.860322 8.07902 0.71967 8.21967C0.579018 8.36032 0.5 8.55109 0.5 8.75C0.5 8.94891 0.579018 9.13968 0.71967 9.28033C0.860322 9.42098 1.05109 9.5 1.25 9.5H8.75C8.94891 9.5 9.13968 9.42098 9.28033 9.28033C9.42098 9.13968 9.5 8.94891 9.5 8.75C9.5 8.55109 9.42098 8.36032 9.28033 8.21967C9.13968 8.07902 8.94891 8 8.75 8ZM1.25 2H14.75C14.9489 2 15.1397 1.92098 15.2803 1.78033C15.421 1.63968 15.5 1.44891 15.5 1.25C15.5 1.05109 15.421 0.860322 15.2803 0.71967C15.1397 0.579018 14.9489 0.5 14.75 0.5H1.25C1.05109 0.5 0.860322 0.579018 0.71967 0.71967C0.579018 0.860322 0.5 1.05109 0.5 1.25C0.5 1.44891 0.579018 1.63968 0.71967 1.78033C0.860322 1.92098 1.05109 2 1.25 2ZM14.75 4.25H1.25C1.05109 4.25 0.860322 4.32902 0.71967 4.46967C0.579018 4.61032 0.5 4.80109 0.5 5C0.5 5.19891 0.579018 5.38968 0.71967 5.53033C0.860322 5.67098 1.05109 5.75 1.25 5.75H14.75C14.9489 5.75 15.1397 5.67098 15.2803 5.53033C15.421 5.38968 15.5 5.19891 15.5 5C15.5 4.80109 15.421 4.61032 15.2803 4.46967C15.1397 4.32902 14.9489 4.25 14.75 4.25Z" fill="#555555"/>
</svg>
