<svg width="124" height="40" viewBox="0 0 124 40" fill="none" xmlns="http://www.w3.org/2000/svg">
<path d="M73.8387 16.9627L70.5735 24.3201L66.1483 16.9627H58.41L54.0384 26.5101L51.8259 16.8668H44.9031C44.9031 16.8668 43.89 16.8724 43.0348 17.2393C42.58 17.4476 42.1525 17.7111 41.7621 18.0239L35.288 23.7303C31.2834 26.8826 24.276 28.7001 22.3174 28.7876C12.993 29.2109 11.0485 22.8441 11.6948 19.8357C13.3599 12.0606 25.4246 10.2178 31.7575 10.2178C34.7603 10.2178 37.224 10.8104 39.129 11.3382L40.9606 8.07294L39.6144 7.7879C37.9437 7.57906 35.3388 7.01463 30.8939 7.00052C12.9168 6.94125 3.68832 11.9873 0.877446 18.4585C-2.29466 25.7622 3.0618 32.3717 18.1237 32.3717C20.8555 32.3717 26.2599 32.1347 31.3398 30.3031H36.2419L38.7565 28.0736H46.3481L46.667 30.4583H54.9415L54.9302 30.4019H59.3526L62.8803 22.6889L67.5058 30.3962L74.6825 30.399L80.8377 16.9627H73.8387ZM41.6379 25.3784L45.6764 21.5346L46.0602 25.2853L41.6379 25.3784ZM94.0115 16.9627H82.6975L76.5395 30.399H87.8564C96.9099 30.4724 100.59 26.9899 101.809 24.3201C103.169 21.3653 102.001 16.9627 94.0115 16.9627ZM95.1827 23.4565C94.3163 26.8234 89.3436 27.0435 87.6503 27.0435H85.6438L88.6183 20.3268H90.6249C92.4565 20.3239 95.8967 20.6682 95.1827 23.4565Z" fill="#C9C9C9"/>
<path d="M116.197 16.8668L110.544 22.4914L108.639 16.9628H101.719L106.237 27.2044L101.75 31.6493H107.679C107.679 31.6493 108.833 31.5082 109.313 31.3388C109.793 31.1667 110.473 30.4753 110.473 30.4753L124 16.8809L116.197 16.8668Z" fill="#C9C9C9"/>
</svg>
