<svg width="22" height="22" viewBox="0 0 22 22" fill="none" xmlns="http://www.w3.org/2000/svg">
<path d="M16.0769 16.0771H4.23077C4.00636 16.0771 3.79113 15.988 3.63245 15.8293C3.47376 15.6706 3.38462 15.4554 3.38462 15.231C3.38462 15.0065 3.47376 14.7913 3.63245 14.6326C3.79113 14.474 4.00636 14.3848 4.23077 14.3848H13.0646C13.6304 14.3848 14.18 14.1959 14.6261 13.8479C15.0722 13.4999 15.3892 13.0128 15.5269 12.464L16.9231 6.9725C16.9548 6.84761 16.9575 6.71714 16.9311 6.59103C16.9047 6.46491 16.8499 6.3465 16.7708 6.2448C16.6885 6.1405 16.5828 6.05704 16.4622 6.00118C16.3417 5.94532 16.2097 5.91863 16.0769 5.92326H4.02769C3.85312 5.42949 3.53009 5.0018 3.1029 4.69883C2.67571 4.39585 2.16526 4.23243 1.64154 4.23096H0.846154C0.62174 4.23096 0.406517 4.32011 0.247833 4.47879C0.0891481 4.63747 0 4.8527 0 5.07711C0 5.30152 0.0891481 5.51675 0.247833 5.67543C0.406517 5.83412 0.62174 5.92326 0.846154 5.92326H1.64154C1.83483 5.91763 2.02422 5.97838 2.17817 6.09538C2.33213 6.21239 2.44137 6.3786 2.48769 6.56634L2.53846 6.9725L4.00231 12.6925C3.32907 12.7228 2.69543 13.0193 2.2408 13.5168C1.78617 14.0142 1.54778 14.6719 1.57808 15.3452C1.60837 16.0184 1.90487 16.6521 2.40235 17.1067C2.89982 17.5613 3.55753 17.7997 4.23077 17.7694H4.38308C4.24391 18.1528 4.1992 18.5641 4.25271 18.9685C4.30622 19.3729 4.45639 19.7584 4.6905 20.0924C4.92461 20.4264 5.23576 20.6991 5.59761 20.8874C5.95945 21.0756 6.36134 21.1739 6.76923 21.1739C7.17712 21.1739 7.57901 21.0756 7.94086 20.8874C8.3027 20.6991 8.61385 20.4264 8.84796 20.0924C9.08207 19.7584 9.23224 19.3729 9.28575 18.9685C9.33926 18.5641 9.29455 18.1528 9.15538 17.7694H11.1523C11.0131 18.1528 10.9684 18.5641 11.0219 18.9685C11.0755 19.3729 11.2256 19.7584 11.4597 20.0924C11.6938 20.4264 12.005 20.6991 12.3668 20.8874C12.7287 21.0756 13.1306 21.1739 13.5385 21.1739C13.9464 21.1739 14.3482 21.0756 14.7101 20.8874C15.0719 20.6991 15.3831 20.4264 15.6172 20.0924C15.8513 19.7584 16.0015 19.3729 16.055 18.9685C16.1085 18.5641 16.0638 18.1528 15.9246 17.7694H16.0769C16.3013 17.7694 16.5166 17.6803 16.6752 17.5216C16.8339 17.3629 16.9231 17.1477 16.9231 16.9233C16.9231 16.6989 16.8339 16.4836 16.6752 16.3249C16.5166 16.1663 16.3013 16.0771 16.0769 16.0771ZM14.9938 7.61557L13.8854 12.0494C13.8391 12.2372 13.7298 12.4034 13.5759 12.5204C13.4219 12.6374 13.2325 12.6981 13.0392 12.6925H5.73692L4.46769 7.61557H14.9938ZM6.76923 19.4617C6.60188 19.4617 6.43828 19.4121 6.29913 19.3191C6.15998 19.2261 6.05153 19.094 5.98749 18.9394C5.92344 18.7848 5.90669 18.6146 5.93934 18.4505C5.97198 18.2864 6.05257 18.1356 6.17091 18.0173C6.28925 17.8989 6.44002 17.8183 6.60415 17.7857C6.76829 17.753 6.93843 17.7698 7.09304 17.8338C7.24765 17.8979 7.37981 18.0063 7.47278 18.1455C7.56576 18.2846 7.61538 18.4482 7.61538 18.6156C7.61538 18.84 7.52624 19.0552 7.36755 19.2139C7.20887 19.3726 6.99364 19.4617 6.76923 19.4617ZM13.5385 19.4617C13.3711 19.4617 13.2075 19.4121 13.0684 19.3191C12.9292 19.2261 12.8208 19.094 12.7567 18.9394C12.6927 18.7848 12.6759 18.6146 12.7086 18.4505C12.7412 18.2864 12.8218 18.1356 12.9401 18.0173C13.0585 17.8989 13.2092 17.8183 13.3734 17.7857C13.5375 17.753 13.7077 17.7698 13.8623 17.8338C14.0169 17.8979 14.149 18.0063 14.242 18.1455C14.335 18.2846 14.3846 18.4482 14.3846 18.6156C14.3846 18.84 14.2955 19.0552 14.1368 19.2139C13.9781 19.3726 13.7629 19.4617 13.5385 19.4617Z" fill="#555555"/>
<ellipse cx="16.0774" cy="5.92308" rx="5.92308" ry="5.92308" fill="#FF0505"/>
<path d="M18.5859 8.1001H14.6875V7.32666L16.5273 5.36572C16.7799 5.08968 16.9661 4.8488 17.0859 4.64307C17.2083 4.43734 17.2695 4.24202 17.2695 4.05713C17.2695 3.80452 17.2057 3.60661 17.0781 3.46338C16.9505 3.31755 16.7682 3.24463 16.5312 3.24463C16.276 3.24463 16.0742 3.33317 15.9258 3.51025C15.7799 3.68473 15.707 3.9152 15.707 4.20166H14.5742C14.5742 3.85531 14.6562 3.5389 14.8203 3.25244C14.987 2.96598 15.2214 2.74202 15.5234 2.58057C15.8255 2.4165 16.168 2.33447 16.5508 2.33447C17.1367 2.33447 17.5911 2.4751 17.9141 2.75635C18.2396 3.0376 18.4023 3.43473 18.4023 3.94775C18.4023 4.229 18.3294 4.51546 18.1836 4.80713C18.0378 5.0988 17.7878 5.43864 17.4336 5.82666L16.1406 7.18994H18.5859V8.1001Z" fill="#FFFDFD"/>
</svg>
