<svg width="25" height="22" viewBox="0 0 25 22" fill="none" xmlns="http://www.w3.org/2000/svg">
<path d="M7.87367 16.5929L7.87358 16.5929L7.87736 16.6021C7.89684 16.6496 7.89684 16.7027 7.87736 16.7501L7.87727 16.7501L7.87367 16.7594C7.86486 16.7821 7.85186 16.803 7.83535 16.8209L4.36672 20.2895L4.36672 20.2895L4.36528 20.291C4.34717 20.3092 4.32563 20.3237 4.30191 20.3336C4.27818 20.3435 4.25272 20.3486 4.22701 20.3486C4.2013 20.3486 4.17585 20.3435 4.15212 20.3336C4.1284 20.3237 4.10686 20.3092 4.08875 20.291L4.08876 20.291L4.08585 20.2881C4.0676 20.27 4.05311 20.2485 4.04323 20.2247C4.03334 20.201 4.02825 20.1755 4.02825 20.1498C4.02825 20.1241 4.03334 20.0987 4.04323 20.0749C4.05311 20.0512 4.0676 20.0297 4.08585 20.0116L4.08677 20.0107L6.3794 17.725L7.23608 16.8709H6.02638H0.75333C0.701684 16.8709 0.652152 16.8504 0.615631 16.8138C0.57911 16.7773 0.558594 16.7278 0.558594 16.6761C0.558594 16.6245 0.579111 16.575 0.615631 16.5384C0.652151 16.5019 0.701683 16.4814 0.75333 16.4814H6.02638H7.23608L6.3794 15.6273L4.0873 13.3422C4.08725 13.3421 4.0872 13.3421 4.08714 13.342C4.05019 13.305 4.02943 13.2548 4.02943 13.2025C4.02943 13.1765 4.03455 13.1508 4.04447 13.1269C4.0544 13.1029 4.06896 13.0811 4.0873 13.0628C4.12436 13.0257 4.17461 13.0049 4.22701 13.0049C4.25296 13.0049 4.27865 13.01 4.30262 13.0199C4.32659 13.0299 4.34838 13.0444 4.36672 13.0628L7.83536 16.5314C7.85186 16.5493 7.86486 16.5702 7.87367 16.5929Z" fill="#555555" stroke="#555555"/>
<path d="M7.52282 9.64612L7.52291 9.64615L7.51912 9.65537C7.49964 9.70278 7.49964 9.75596 7.51912 9.80337L7.51921 9.80333L7.52281 9.81262C7.53163 9.83535 7.54463 9.85621 7.56113 9.87413L11.0298 13.3428L11.0298 13.3428L11.0312 13.3442C11.0493 13.3625 11.0709 13.377 11.0946 13.3868C11.1183 13.3967 11.1438 13.4018 11.1695 13.4018C11.1952 13.4018 11.2206 13.3967 11.2444 13.3868C11.2681 13.377 11.2896 13.3625 11.3077 13.3442L11.3077 13.3442L11.3106 13.3413C11.3289 13.3232 11.3434 13.3017 11.3533 13.2779L11.8148 13.4702L11.3533 13.2779C11.3631 13.2542 11.3682 13.2288 11.3682 13.2031C11.3682 13.1773 11.3631 13.1519 11.3533 13.1282L11.8148 12.9359L11.3533 13.1282C11.3434 13.1044 11.3289 13.0829 11.3106 13.0648L11.3097 13.0639L9.01709 10.7782L8.1604 9.92411H9.3701H14.6432C14.6948 9.92411 14.7443 9.90359 14.7809 9.86707C14.8174 9.83055 14.8379 9.78102 14.8379 9.72937C14.8379 9.67772 14.8174 9.62819 14.7809 9.59167C14.7443 9.55515 14.6948 9.53463 14.6432 9.53463H9.3701H8.1604L9.01709 8.68054L11.3092 6.39539C11.3093 6.39531 11.3093 6.39523 11.3094 6.39515C11.3463 6.35812 11.367 6.30797 11.367 6.25568C11.367 6.22974 11.3619 6.20404 11.352 6.18007C11.3421 6.1561 11.3275 6.13432 11.3092 6.11598C11.2721 6.07892 11.2219 6.05811 11.1695 6.05811C11.1435 6.05811 11.1178 6.06322 11.0939 6.07315C11.0699 6.08307 11.0481 6.09763 11.0298 6.11598L7.56112 9.58461C7.54462 9.60253 7.53163 9.62339 7.52282 9.64612Z" fill="#555555" stroke="#555555"/>
<ellipse cx="18.0227" cy="5.92308" rx="5.92308" ry="5.92308" fill="#FF0505"/>
<path d="M20.5312 8.1001H16.6328V7.32666L18.4727 5.36572C18.7253 5.08968 18.9115 4.8488 19.0312 4.64307C19.1536 4.43734 19.2148 4.24202 19.2148 4.05713C19.2148 3.80452 19.151 3.60661 19.0234 3.46338C18.8958 3.31755 18.7135 3.24463 18.4766 3.24463C18.2214 3.24463 18.0195 3.33317 17.8711 3.51025C17.7253 3.68473 17.6523 3.9152 17.6523 4.20166H16.5195C16.5195 3.85531 16.6016 3.5389 16.7656 3.25244C16.9323 2.96598 17.1667 2.74202 17.4688 2.58057C17.7708 2.4165 18.1133 2.33447 18.4961 2.33447C19.082 2.33447 19.5365 2.4751 19.8594 2.75635C20.1849 3.0376 20.3477 3.43473 20.3477 3.94775C20.3477 4.229 20.2747 4.51546 20.1289 4.80713C19.9831 5.0988 19.7331 5.43864 19.3789 5.82666L18.0859 7.18994H20.5312V8.1001Z" fill="#FFFDFD"/>
</svg>
