<svg width="10" height="10" viewBox="0 0 10 10" fill="none" xmlns="http://www.w3.org/2000/svg">
<path d="M5.82263 4.99986L9.49763 1.3307C9.60747 1.22085 9.66918 1.07187 9.66918 0.916531C9.66918 0.761188 9.60747 0.612208 9.49763 0.502364C9.38778 0.39252 9.2388 0.330811 9.08346 0.330811C8.92812 0.330811 8.77914 0.39252 8.66929 0.502364L5.00013 4.17736L1.33096 0.502364C1.22112 0.39252 1.07214 0.330811 0.916794 0.330811C0.761451 0.330811 0.612471 0.39252 0.502627 0.502364C0.392783 0.612208 0.331074 0.761188 0.331074 0.916531C0.331074 1.07187 0.392783 1.22085 0.502627 1.3307L4.17763 4.99986L0.502627 8.66903C0.447952 8.72326 0.404556 8.78778 0.374941 8.85886C0.345326 8.92994 0.330078 9.00619 0.330078 9.0832C0.330078 9.1602 0.345326 9.23645 0.374941 9.30753C0.404556 9.37862 0.447952 9.44313 0.502627 9.49736C0.556856 9.55204 0.621373 9.59544 0.692457 9.62505C0.763542 9.65467 0.839787 9.66991 0.916794 9.66991C0.993801 9.66991 1.07005 9.65467 1.14113 9.62505C1.21221 9.59544 1.27673 9.55204 1.33096 9.49736L5.00013 5.82236L8.66929 9.49736C8.72352 9.55204 8.78804 9.59544 8.85912 9.62505C8.93021 9.65467 9.00645 9.66991 9.08346 9.66991C9.16047 9.66991 9.23671 9.65467 9.3078 9.62505C9.37888 9.59544 9.4434 9.55204 9.49763 9.49736C9.5523 9.44313 9.5957 9.37862 9.62531 9.30753C9.65493 9.23645 9.67018 9.1602 9.67018 9.0832C9.67018 9.00619 9.65493 8.92994 9.62531 8.85886C9.5957 8.78778 9.5523 8.72326 9.49763 8.66903L5.82263 4.99986Z" fill="#555555"/>
</svg>
