<svg width="124" height="40" viewBox="0 0 124 40" fill="none" xmlns="http://www.w3.org/2000/svg">
<path fill-rule="evenodd" clip-rule="evenodd" d="M99.6089 38.9016C109.797 38.9016 118.059 30.6416 118.059 20.4498C118.059 10.2606 109.797 2 99.6089 2H23.4511C13.2606 2 5 10.2606 5 20.4498C5 30.6416 13.2606 38.9016 23.4511 38.9016H99.6089ZM99.3239 36.6925C108.285 36.6925 115.55 29.4284 115.55 20.4672C115.55 11.5047 108.285 4.23997 99.3239 4.23997H23.6686C14.7068 4.23997 7.44132 11.5047 7.44132 20.4672C7.44132 29.4284 14.7068 36.6925 23.6686 36.6925H99.3239ZM99.4082 33.2701C106.492 33.2701 112.234 27.528 112.234 20.4447C112.234 13.3613 106.492 7.61986 99.4082 7.61986H23.7869C16.7036 7.61986 10.9608 13.3607 10.9608 20.4447C10.9608 27.528 16.7036 33.2701 23.7869 33.2701H99.4082ZM23.502 14.958H23.8706C24.8876 14.958 25.2028 15.3253 25.2028 16.4138V22.0774C25.2028 23.1645 24.8876 23.5332 23.8706 23.5332H23.502V14.958ZM18.2243 11.6791V14.3443C18.7673 14.5726 18.802 15.0101 18.8207 15.5369V22.8487C18.8027 23.3569 18.7499 23.813 18.2243 24.0407V26.7066H24.8516C26.272 26.7066 27.6043 26.6191 28.6741 25.6014C29.8134 24.5322 29.8841 23.3923 29.8841 21.9198V16.2909C29.8841 14.8531 29.7613 13.4855 28.5339 12.5212C27.4647 11.6971 25.9915 11.6797 24.7114 11.6797H18.2243V11.6791ZM36.8099 19.5511H35.1972V19.1317C35.1972 18.6923 35.2666 18.0079 36.0032 18.0079C36.7398 18.0079 36.8099 18.6923 36.8099 19.1317V19.5511ZM31.0582 22.6731C31.0582 24.0047 31.1116 25.2328 32.2682 26.0916C33.1798 26.7747 34.8813 27.0565 36.5642 26.9336C38.2651 26.8108 39.966 26.3026 40.8769 25.5132V22.7425H36.7398V23.1459C36.7398 23.7068 36.6864 24.3559 35.9678 24.3559C35.2486 24.3559 35.1785 23.6367 35.1965 23.0925V22.0767H40.8769V19.4636C40.9476 16.7631 39.9473 15.4134 35.8797 15.4308C32.0051 15.4482 30.9881 16.6582 31.0582 19.674V22.6731ZM41.8244 26.7059V24.0401C42.386 23.6895 42.3333 23.1285 42.3333 22.5676V15.8174C42.3333 15.2558 42.386 14.6949 41.8244 14.3443V11.6791H47.5234V14.3443C46.9625 14.6949 47.0146 15.2558 47.0146 15.8174V23.5145H47.4701C48.6627 23.5145 48.6454 22.7953 48.6454 21.8484V19.4109H52.7657V26.7053H41.8244V26.7059ZM57.9732 19.6573C57.9732 19.0429 57.8677 18.0085 58.7625 18.0085C59.6567 18.0085 59.5339 19.0603 59.5339 19.6573V22.8487C59.5339 23.4444 59.586 24.3566 58.7452 24.3566C57.9211 24.3566 57.9732 23.4444 57.9732 22.8487V19.6573ZM63.6709 19.6213C63.6709 18.2195 63.5828 16.8859 62.2512 16.0799C61.2869 15.5183 59.6027 15.4314 58.4814 15.4314C57.2366 15.4314 55.8863 15.5363 54.8867 16.3256C53.8522 17.1317 53.8349 18.4299 53.8349 19.6219V22.4981C53.8349 23.9532 53.8349 25.3029 55.1845 26.1971C56.1495 26.8455 57.7629 26.9343 58.9021 26.9343C60.1643 26.9343 61.6375 26.8288 62.6371 25.97C63.6362 25.1105 63.6709 23.7255 63.6709 22.4987V19.6213ZM69.2117 16.3436C70.3336 15.5884 71.3159 15.3967 72.1934 15.4314C73.0528 15.4662 73.8055 15.7473 74.2262 16.1674C74.9814 16.8859 75.0683 17.6933 75.0683 18.6396V22.7779C75.0683 23.3215 75.0168 23.9352 75.5598 24.2337V26.7059H71.1596C70.9132 25.5834 70.9312 24.4093 70.9312 23.2694V20.0433C70.9312 19.9725 70.984 19.4643 70.8083 19.0603C70.5279 18.6396 70.0718 18.3244 69.3886 18.6396V22.7779C69.3886 23.3215 69.3358 23.9352 69.8961 24.2337V26.7059H64.7407V24.2337C65.285 23.9179 65.2496 23.409 65.2496 22.8487V19.4997C65.2496 18.9033 65.267 18.5174 64.7407 18.1307V15.6592H69.2123V16.3436H69.2117ZM82.398 23.6013C82.1716 23.7247 81.9186 23.7914 81.6608 23.7956C80.82 23.7956 80.82 22.83 80.82 22.2343V19.7975C80.82 19.1664 80.82 18.4299 81.6441 18.4299C81.9066 18.4299 82.187 18.5167 82.398 18.6569V23.6013ZM87.0446 15.6585H82.5035V16.2903C81.7129 15.6939 80.7493 15.4314 79.7669 15.4314C77.2954 15.4314 76.681 16.9387 76.681 19.3408V23.4971C76.681 25.9159 77.8737 26.9336 79.9606 26.9336C80.7499 26.9336 81.6608 26.6879 82.398 26.1269V26.8281C82.398 27.4586 82.5035 28.5464 81.5913 28.5464C81.2581 28.5464 81.0651 28.3714 80.9429 28.1263C80.8374 27.8806 80.82 27.566 80.82 27.3196H76.9789V29.9668C78.5923 30.861 79.9779 31.1415 81.8184 31.1415C83.0812 31.1415 84.6766 30.9838 85.6242 30.0549C86.5879 29.1254 86.5364 27.4425 86.5364 26.1971V19.499C86.5364 18.9374 86.4997 18.464 87.044 18.1301V15.6585H87.0446ZM92.8292 16.1507C93.6747 15.6437 94.6495 15.3938 95.6346 15.4314C96.4953 15.4662 97.248 15.7473 97.67 16.1674C98.4227 16.8859 98.5108 17.6933 98.5108 18.6396V22.7779C98.5108 23.3215 98.458 23.9352 99.0023 24.2337V26.7059H94.6021C94.3557 25.5834 94.3737 24.4093 94.3737 23.2694V20.0433C94.3737 19.9725 94.4265 19.4643 94.2521 19.0603C93.9704 18.6396 93.5136 18.3244 92.8298 18.6396V22.7779C92.8298 23.3215 92.7783 23.9352 93.3386 24.2337V26.7059H88.1845V24.2337C88.7275 23.9179 88.6934 23.409 88.6934 22.8487V15.6071C88.7095 15.0448 88.7448 14.4485 88.1672 14.1519V11.6791H92.8298V16.1507H92.8292ZM104.647 22.7779C104.647 23.3389 104.596 23.8998 105.173 24.2337V26.7059H100.001V24.2337C100.545 23.8998 100.51 23.409 100.51 22.8487V19.5865C100.51 19.0256 100.562 18.464 100.001 18.1307V15.6592H104.647V22.7779ZM100.177 13.2224C100.177 12.0297 101.404 11.5388 102.422 11.5388C103.455 11.5388 104.647 12.1004 104.647 13.2931C104.647 14.4491 103.474 14.9934 102.456 14.9934C101.371 14.9927 100.177 14.4671 100.177 13.2224ZM31.5876 13.3665H40.505V14.1378H31.5876V13.3665Z" fill="#C9C9C9"/>
</svg>
