<svg width="124" height="40" viewBox="0 0 124 40" fill="none" xmlns="http://www.w3.org/2000/svg">
<g clip-path="url(#clip0)">
<path fill-rule="evenodd" clip-rule="evenodd" d="M116.781 23.9901L117.987 25.7133C118.54 26.2565 118.185 27.0394 117.604 27.2082C117.476 27.2479 117.391 27.3117 117.391 27.4124V27.6323L124 27.6307V27.3868C124 27.3187 123.972 27.2379 123.901 27.2109C123.859 27.1996 123.816 27.1883 123.773 27.1741C123.093 26.9485 122.511 26.6067 121.958 25.8933L118.724 21.6257L120.171 19.8245C121.121 18.7537 122.327 18.0233 123.036 17.8772C123.178 17.8489 123.206 17.785 123.206 17.6631V17.4716H122.979L119.249 17.4729H119.036C119.036 17.4729 119.036 17.575 119.036 17.663C119.036 17.7708 119.079 17.8417 119.164 17.8871C119.192 17.9098 119.192 17.9112 119.221 17.931C119.504 18.1027 119.746 18.5608 119.107 19.3054C119.107 19.3224 118.653 19.8812 118.001 20.6641V20.6527L117.065 19.3876C116.498 18.8288 116.895 18.009 117.491 17.8743C117.632 17.8474 117.661 17.7849 117.661 17.663V17.4701L117.434 17.4714H111.208C111.208 17.4714 111.193 17.5749 111.193 17.6629C111.193 17.8175 111.307 17.8955 111.449 17.9338C112.115 18.1578 112.697 18.4996 113.25 19.2074L116.058 23.0169L114.243 25.2081C113.292 26.2662 112.484 27.0661 111.832 27.2093C111.69 27.2391 111.619 27.3114 111.619 27.4121V27.632L115.448 27.6304V27.3922C115.448 27.3227 115.42 27.2531 115.349 27.2149C115.292 27.1936 115.264 27.1823 115.235 27.1582C114.966 26.9766 114.753 26.5227 115.377 25.7966C115.377 25.781 116.129 24.7612 116.781 23.9783V23.9897" fill="#C9C9C9"/>
<path d="M33.3441 15.2947C33.0037 14.4778 32.1244 14.1303 31.1883 14.1303H27.3873V19.2191L30.3799 19.2262C31.4011 19.2262 32.3229 19.0376 32.5073 18.2688C32.5215 18.1781 32.5924 18.1114 32.6775 18.11L32.8477 18.1113V21.6953L32.6775 21.6966C32.5924 21.6979 32.5357 21.62 32.4931 21.5179C32.252 20.8556 31.3443 20.5365 30.3799 20.5365H27.3873V24.6154C27.3873 25.8309 27.827 26.1599 29.0467 26.1599H31.1883C32.1953 26.1599 33.3157 25.6664 33.6987 24.7076C33.727 24.6353 33.7838 24.5998 33.8689 24.5998H34.0107V27.6208H22.707V27.425C22.707 27.3243 22.7779 27.2322 22.9198 27.2208C23.6147 27.1698 24.1537 26.4493 24.1537 25.3402V14.8747C24.1537 13.767 23.6147 13.0423 22.9198 12.9898C22.7779 12.9784 22.707 12.8863 22.707 12.7856V12.5898H33.6561V15.4037H33.5143C33.4434 15.4009 33.3725 15.3555 33.3441 15.2945" fill="#C9C9C9"/>
<path d="M40.8462 27.6209L40.8604 27.4252C40.8604 27.3245 40.7895 27.2323 40.6335 27.2209C39.9527 27.1699 39.3995 26.4409 39.3995 25.3332V14.4806C39.3995 13.6466 39.3995 12 39.3995 12L35.0312 12.59V12.7857C35.0312 12.8864 35.1022 12.9786 35.244 12.9899C35.9389 13.0424 36.4779 13.7629 36.4779 14.8706C36.4779 14.8451 36.4921 25.3375 36.4921 25.3375C36.4921 26.4437 35.939 27.1699 35.2582 27.2209C35.1022 27.2323 35.0313 27.3245 35.0313 27.4252L35.0454 27.6209H40.8462" fill="#C9C9C9"/>
<path d="M98.7133 27.6209L98.7275 27.4252C98.7275 27.3245 98.6566 27.2323 98.5006 27.2209C97.8198 27.1699 97.2667 26.4409 97.2667 25.3332V14.4806C97.2667 13.6466 97.2667 12 97.2667 12L92.8984 12.59V12.7857C92.8984 12.8864 92.9694 12.9786 93.1112 12.9899C93.7919 13.0424 94.3451 13.7629 94.3451 14.8706C94.3451 14.8451 94.3593 25.3375 94.3593 25.3375C94.3593 26.4437 93.8061 27.1699 93.1254 27.2209C92.9694 27.2323 92.8984 27.3245 92.8984 27.4252V27.6209H98.7133" fill="#C9C9C9"/>
<path d="M76.289 17.2931C76.289 17.2931 76.289 18.7284 76.289 19.5638C76.7429 18.727 77.6364 17.1002 79.5652 17.1002C79.9198 17.1002 80.2035 17.1768 80.402 17.2506L79.5936 20.0474C79.4943 20.0474 78.7426 20.0474 78.3597 20.0474C77.1116 20.0474 76.3316 20.8558 76.3316 21.8515V25.3319C76.3316 26.4396 76.8847 27.17 77.5655 27.2211C77.7215 27.2324 77.7924 27.3246 77.7782 27.4253V27.621H72.0059V27.4253C72.0059 27.3246 72.0767 27.2324 72.2328 27.2211C72.9135 27.17 73.4667 26.4424 73.4667 25.3348C73.4667 24.5235 73.4667 21.1338 73.4667 20.1609C73.4667 19.0546 72.9986 18.388 72.2328 18.2802C72.1193 18.266 72.0059 18.1412 72.0059 18.0334C72.0059 17.9257 72.0059 17.8817 72.0059 17.8817L76.289 17.2931Z" fill="#C9C9C9"/>
<path d="M110.994 27.6308H108.328C107.42 27.6308 107.151 27.0606 107.151 26.5855C105.973 27.4833 105.122 27.8676 103.591 27.9215C101.875 27.9754 100.3 26.9103 100.3 25.0027L100.286 20.1678C100.286 19.0587 99.7329 18.3382 99.0522 18.2857C98.9103 18.2744 98.8252 18.1822 98.8394 18.0829V17.8858L103.307 17.2958V23.583C103.307 26.394 106.073 26.0948 107.151 25.302V20.1649C107.151 19.0573 106.597 18.3382 105.917 18.2857C105.761 18.2744 105.69 18.1822 105.69 18.0829V17.8858L110.157 17.2958V25.3218C110.157 26.1884 110.328 27.0805 111.008 27.2251C111.122 27.2492 111.207 27.2989 111.207 27.4563C111.207 27.54 111.207 27.6308 111.207 27.6308H110.994" fill="#C9C9C9"/>
<path d="M62.617 20.477V17.8348C62.617 17.8348 61.0853 17.1384 58.6175 17.1384C55.398 17.1384 53.1713 18.7694 53.1429 22.7293C53.1145 25.858 54.9441 27.9514 58.4898 27.9514C60.83 27.9514 62.1915 26.7955 62.6879 26.3303C62.9999 26.0977 62.9999 25.8878 62.9999 25.6226C62.9999 25.3573 63.0141 24.8907 63.0141 24.8907C62.0639 25.58 60.7732 26.0537 59.5251 26.0537C56.9581 26.0537 56.2064 24.2369 56.2064 22.2215C56.2064 21.3904 56.4759 18.5553 58.8727 18.5283C60.4187 18.5283 61.298 18.9949 62.2057 20.5083C62.3617 20.738 62.461 20.7877 62.617 20.755V20.477" fill="#C9C9C9"/>
<path d="M86.4732 18.5071C84.5586 18.5071 84.0196 20.0048 84.0196 22.3605C84.0196 24.2596 84.048 26.6409 86.5016 26.6409C88.8559 26.587 88.8276 24.6057 88.8276 22.44C88.8276 19.9112 88.2035 18.5213 86.4732 18.5071ZM86.303 17.0874C88.785 17.0477 92.1605 17.6745 92.1889 22.3336C92.1889 25.9701 90.8273 27.9514 86.3456 27.9514C83.2396 27.9514 80.715 27.2536 80.715 22.5733C80.6866 17.8136 84.1614 17.1157 86.303 17.0888V17.0875" fill="#C9C9C9"/>
<path d="M51.8526 22.1732H44.7754C44.6336 25.3828 46.3781 26.0238 48.0658 26.0508C49.4983 26.0508 50.5904 25.5601 51.5264 24.9034C51.5264 24.9034 51.5264 25.5501 51.5264 25.7161C51.5264 25.8834 51.4413 26.0153 51.3988 26.0948C50.7605 26.9542 49.1295 27.9527 46.8887 27.9527C43.8252 27.9527 41.6836 26.3742 41.6836 22.7618C41.6836 18.7935 43.8819 17.1596 46.9454 17.1426C50.1081 17.1426 51.7392 18.6332 51.8526 21.8839V22.1732ZM46.917 18.3198C45.9384 18.3737 45.0449 18.8006 44.7754 20.9152H48.9593C48.9877 18.7467 47.8956 18.3737 46.8887 18.3198H46.917Z" fill="#C9C9C9"/>
<path d="M70.9857 17.9411V17.4787H67.7236V14.4592L63.4121 18.9254H64.7878V24.8467C64.7878 25.8565 65.0999 27.9853 67.9506 28.0123C69.2128 28.0123 70.1063 27.5613 70.8013 26.95C71.0566 26.7429 71.0566 26.611 71.0707 26.4054C71.0849 26.2281 71.0707 26.021 71.0707 25.6736C69.2695 26.689 67.7236 26.0508 67.7236 24.0808V18.9254H70.0354C70.4893 18.8516 70.9857 18.6034 70.9857 17.9411Z" fill="#C9C9C9"/>
<path fill-rule="evenodd" clip-rule="evenodd" d="M15.4451 12.3163H0V27.7542H15.4451V12.3163ZM9.75775 26.8792V13.1899C12.7078 14.0636 14.8636 16.8151 14.8636 20.0303C14.8636 23.2569 12.7078 25.9956 9.75775 26.8792ZM0.595677 19.7013C0.765864 15.913 3.90027 12.8992 7.72961 12.8992C8.18348 12.8992 8.63731 12.9432 9.07699 13.0283C9.07699 16.7328 6.08442 19.7013 2.36851 19.7013H0.595677ZM2.36851 20.3678C6.08442 20.3678 9.07699 23.3306 9.07699 27.0422C8.63731 27.1259 8.18348 27.1699 7.72961 27.1699C3.90027 27.1699 0.765864 24.1561 0.595677 20.3678H2.36851Z" fill="#C9C9C9"/>
</g>
<defs>
<clipPath id="clip0">
</clipPath>
</defs>
</svg>
