<svg width="18" height="18" viewBox="0 0 18 18" fill="none" xmlns="http://www.w3.org/2000/svg">
<path d="M8.20416 4.5599C8.46724 4.51957 8.73302 4.49951 8.99916 4.4999C11.3842 4.4999 13.6267 6.2174 14.9317 8.9999C14.7321 9.42334 14.5067 9.83412 14.2567 10.2299C14.1773 10.3528 14.1356 10.4961 14.1367 10.6424C14.1383 10.8061 14.1935 10.9647 14.2938 11.0941C14.394 11.2235 14.5338 11.3165 14.6919 11.359C14.85 11.4015 15.0176 11.3911 15.1693 11.3295C15.3209 11.2678 15.4481 11.1582 15.5317 11.0174C15.8811 10.4683 16.1846 9.89139 16.4392 9.2924C16.4794 9.19881 16.5002 9.09801 16.5002 8.99615C16.5002 8.89428 16.4794 8.79348 16.4392 8.6999C14.9242 5.1824 12.0742 2.9999 8.99916 2.9999C8.64716 2.99812 8.29573 3.02824 7.94916 3.0899C7.85067 3.10664 7.75644 3.14262 7.67186 3.19578C7.58727 3.24894 7.51398 3.31824 7.45618 3.39972C7.39837 3.4812 7.35718 3.57328 7.33496 3.67068C7.31274 3.76808 7.30992 3.8689 7.32666 3.9674C7.34341 4.06589 7.37939 4.16012 7.43255 4.2447C7.48571 4.32929 7.55501 4.40258 7.63649 4.46038C7.71797 4.51819 7.81004 4.55938 7.90745 4.5816C8.00485 4.60382 8.10567 4.60664 8.20416 4.5899V4.5599ZM2.78166 1.71739C2.71173 1.64747 2.62872 1.592 2.53735 1.55415C2.44598 1.5163 2.34806 1.49683 2.24916 1.49683C2.15027 1.49683 2.05234 1.5163 1.96098 1.55415C1.86961 1.592 1.78659 1.64747 1.71666 1.71739C1.57543 1.85862 1.49609 2.05017 1.49609 2.2499C1.49609 2.44962 1.57543 2.64117 1.71666 2.7824L4.04166 5.0999C2.98084 6.12104 2.13656 7.34539 1.55916 8.6999C1.51786 8.79452 1.49655 8.89665 1.49655 8.9999C1.49655 9.10314 1.51786 9.20527 1.55916 9.2999C3.07416 12.8174 5.92416 14.9999 8.99916 14.9999C10.347 14.9906 11.663 14.5893 12.7867 13.8449L15.2167 16.2824C15.2864 16.3527 15.3693 16.4085 15.4607 16.4466C15.5521 16.4846 15.6502 16.5042 15.7492 16.5042C15.8482 16.5042 15.9462 16.4846 16.0376 16.4466C16.129 16.4085 16.2119 16.3527 16.2817 16.2824C16.352 16.2127 16.4078 16.1297 16.4458 16.0383C16.4839 15.9469 16.5035 15.8489 16.5035 15.7499C16.5035 15.6509 16.4839 15.5529 16.4458 15.4615C16.4078 15.3701 16.352 15.2871 16.2817 15.2174L2.78166 1.71739ZM7.55166 8.6099L9.38916 10.4474C9.2624 10.4837 9.13102 10.5014 8.99916 10.4999C8.60134 10.4999 8.21981 10.3419 7.9385 10.0606C7.6572 9.77925 7.49916 9.39772 7.49916 8.9999C7.49763 8.86804 7.51531 8.73666 7.55166 8.6099ZM8.99916 13.4999C6.61416 13.4999 4.37166 11.7824 3.07416 8.9999C3.55873 7.93021 4.24647 6.96483 5.09916 6.1574L6.42666 7.4999C6.11485 8.06899 5.99597 8.72385 6.08786 9.36624C6.17975 10.0086 6.47745 10.6039 6.93631 11.0628C7.39517 11.5216 7.99044 11.8193 8.63282 11.9112C9.2752 12.0031 9.93007 11.8842 10.4992 11.5724L11.6917 12.7499C10.875 13.2306 9.94673 13.4891 8.99916 13.4999Z" fill="#AAAAAA"/>
</svg>
