<svg width="39" height="38" viewBox="0 0 39 38" fill="none" xmlns="http://www.w3.org/2000/svg">
<path d="M38.998 19C38.998 8.50659 30.4915 0 19.998 0C9.50464 0 0.998047 8.50659 0.998047 19C0.998047 29.4934 9.50464 38 19.998 38C30.4915 38 38.998 29.4934 38.998 19Z" fill="#3AB1C8"/>
<path d="M18.5662 23.392L22.4529 19.4595C22.5388 19.3743 22.607 19.2729 22.6535 19.1612C22.7 19.0495 22.724 18.9297 22.724 18.8086C22.724 18.6876 22.7 18.5678 22.6535 18.4561C22.607 18.3444 22.5388 18.243 22.4529 18.1578L18.5662 14.2711C18.481 14.1852 18.3796 14.117 18.2679 14.0705C18.1562 14.024 18.0364 14 17.9154 14C17.7943 14 17.6745 14.024 17.5628 14.0705C17.4511 14.117 17.3497 14.1852 17.2645 14.2711C17.0938 14.4429 16.998 14.6752 16.998 14.9174C16.998 15.1596 17.0938 15.3919 17.2645 15.5636L20.5095 18.8086L17.2645 22.0536C17.0952 22.2244 16.9997 22.4548 16.9987 22.6953C16.998 22.816 17.0211 22.9355 17.0667 23.0472C17.1124 23.1589 17.1796 23.2605 17.2645 23.3461C17.3467 23.4351 17.4456 23.507 17.5557 23.5575C17.6658 23.608 17.7848 23.6362 17.9058 23.6405C18.0268 23.6447 18.1475 23.6249 18.2609 23.5823C18.3742 23.5397 18.478 23.475 18.5662 23.392Z" fill="#FEFEFE"/>
</svg>
