<svg width="22" height="22" viewBox="0 0 22 22" fill="none" xmlns="http://www.w3.org/2000/svg">
<g clip-path="url(#clip0)">
<path d="M11.0004 21.9998C17.0757 21.9998 22.0008 17.0748 22.0008 10.9994C22.0008 4.92407 17.0757 -0.000976562 11.0004 -0.000976562C4.92504 -0.000976562 0 4.92407 0 10.9994C0 17.0748 4.92504 21.9998 11.0004 21.9998Z" fill="#DC4E41"/>
<path d="M3.83091 11.4936C3.79189 13.3863 5.09551 15.1925 6.88877 15.7815C8.57791 16.349 10.6547 15.9245 11.7787 14.4779C12.5994 13.4643 12.7859 12.113 12.697 10.8506C11.2505 10.8377 9.80388 10.842 8.35947 10.8441C8.35711 11.3595 8.35947 11.8728 8.36162 12.3882C9.22776 12.4121 10.0941 12.4011 10.9602 12.4186C10.7416 13.1678 10.2435 13.8651 9.48759 14.1357C8.02807 14.7789 6.16578 13.9387 5.70653 12.4076C5.15218 10.9414 6.0597 9.17204 7.55804 8.74554C8.48712 8.41866 9.44425 8.78672 10.2392 9.2697C10.642 8.89281 11.0189 8.49003 11.3891 8.08295C10.4859 7.32721 9.32522 6.86384 8.132 6.96561C5.79085 6.99346 3.74208 9.15479 3.83091 11.4936Z" fill="#DC4E41"/>
<path d="M15.5111 9.54346C15.5067 9.97447 15.5022 10.4076 15.5001 10.8385C15.0669 10.8428 14.6361 10.8449 14.2051 10.8471C14.2051 11.2781 14.2051 11.7067 14.2051 12.1378C14.6361 12.1399 15.0693 12.1421 15.5001 12.1466C15.5044 12.5776 15.5044 13.0084 15.5087 13.4416C15.9376 13.4416 16.3686 13.4394 16.7994 13.4416C16.8017 13.0084 16.8037 12.5776 16.8082 12.1444C17.239 12.1423 17.6722 12.1401 18.1032 12.138C18.1032 11.7069 18.1032 11.2783 18.1032 10.8473C17.6724 10.8451 17.2392 10.843 16.8082 10.8386C16.8059 10.4076 16.8017 9.97447 16.7994 9.54365C16.3686 9.54346 15.9397 9.54346 15.5111 9.54346Z" fill="#DC4E41"/>
<path d="M3.83091 11.4928C3.74208 9.15401 5.79066 6.99268 8.13181 6.96464C9.32503 6.86286 10.4859 7.32623 11.3889 8.08197C11.0185 8.48925 10.6416 8.89183 10.239 9.26872C9.44406 8.78575 8.48693 8.41768 7.55784 8.74457C6.0593 9.17126 5.15179 10.9406 5.70634 12.4066C6.16559 13.9377 8.02788 14.7779 9.48739 14.1348C10.2431 13.8641 10.7414 13.1668 10.96 12.4176C10.0939 12.4003 9.22757 12.4111 8.36143 12.3872C8.35927 11.8718 8.35712 11.3585 8.35927 10.8431C9.80369 10.841 11.2503 10.8367 12.6968 10.8496C12.7857 12.1123 12.5994 13.4635 11.7785 14.4769C10.6545 15.9235 8.57792 16.3481 6.88858 15.7806C5.09571 15.1917 3.79189 13.3855 3.83091 11.4928Z" fill="white"/>
<path d="M15.5111 9.54346C15.9399 9.54346 16.3686 9.54346 16.7994 9.54346C16.8017 9.97447 16.8059 10.4076 16.8082 10.8385C17.239 10.8428 17.6722 10.8449 18.1032 10.8471C18.1032 11.2781 18.1032 11.7067 18.1032 12.1378C17.6724 12.1399 17.2392 12.1421 16.8082 12.1442C16.8039 12.5774 16.8017 13.0082 16.7994 13.4414C16.3686 13.4392 15.9374 13.4414 15.5087 13.4414C15.5046 13.0082 15.5046 12.5774 15.5001 12.1464C15.0693 12.1419 14.6361 12.1399 14.2051 12.1376C14.2051 11.7066 14.2051 11.2779 14.2051 10.8469C14.6361 10.8447 15.0671 10.8426 15.5001 10.8383C15.5022 10.4076 15.5065 9.97447 15.5111 9.54346Z" fill="white"/>
</g>
<defs>
<clipPath id="clip0">
</clipPath>
</defs>
</svg>
