<svg width="124" height="40" viewBox="0 0 124 40" fill="none" xmlns="http://www.w3.org/2000/svg">
<path fill-rule="evenodd" clip-rule="evenodd" d="M26.0298 6.55329C24.4647 6.07982 23.3325 7.80965 24.2588 8.81834C28.3772 11.0011 31.1569 15.2835 31.1569 20.1636C31.1569 27.2887 25.2675 33.0952 18.0201 33.0952H17.8966C10.7103 33.0334 4.88327 27.2476 4.88327 20.1636C4.88327 15.3665 7.58063 11.1452 11.5749 8.92127C12.4189 7.7479 11.4514 6.34808 10.1133 6.49153C5.2744 9.20947 2 14.316 2 20.1629C2 28.7908 9.12455 35.8536 17.896 35.9147H18.0195C26.8327 35.9147 34.0389 28.832 34.0389 20.1629C34.0396 14.3571 30.807 9.27123 26.0298 6.55329ZM40.8759 28.0086H43.985V13.5948H40.8759V28.0086Z" fill="#C9C9C9"/>
<path fill-rule="evenodd" clip-rule="evenodd" d="M17.8964 8.30369C17.9169 8.30369 17.9169 8.32428 17.9375 8.32428C19.1315 8.32428 20.0997 7.33552 20.0997 6.16214C20.0997 5.87818 20.0439 5.59698 19.9352 5.33462C19.8266 5.07226 19.6674 4.83388 19.4666 4.63309C19.2658 4.4323 19.0274 4.27304 18.765 4.16441C18.5027 4.05579 18.2215 3.99992 17.9375 4H17.8964C17.3305 4.01193 16.7917 4.24484 16.3953 4.64891C15.999 5.05298 15.7764 5.59612 15.7754 6.16214C15.7754 7.33552 16.7223 8.28246 17.8964 8.30369ZM54.136 13.5948H47.0938V28.008H50.2029V16.4157H53.7861C55.6188 16.4157 56.8746 17.3221 56.8334 19.4425V28.008H59.9425V18.5579C59.9425 15.407 57.3069 13.5948 54.136 13.5948ZM17.8964 11.6804C17.6717 11.6798 17.4492 11.7236 17.2415 11.8093C17.0339 11.895 16.8452 12.0208 16.6864 12.1797C16.5276 12.3385 16.4017 12.5272 16.316 12.7348C16.2303 12.9425 16.1865 13.165 16.1871 13.3896V28.1946C16.1871 29.1203 16.9494 29.8833 17.8964 29.8833C18.8227 29.8833 19.6056 29.1203 19.6056 28.1946V13.389C19.6032 12.9365 19.4224 12.5031 19.1023 12.1832C18.7823 11.8633 18.3489 11.6826 17.8964 11.6804ZM84.3634 13.225C80.6156 13.3896 78.207 15.8811 77.8365 20.6371C77.5888 24.2621 79.5451 28.0498 84.3634 28.3792C84.4664 28.4004 84.5693 28.4004 84.6928 28.4004C86.8755 28.4204 88.3577 28.2358 89.7993 27.6992L89.8405 24.9813C87.946 25.7442 85.9691 25.99 84.3634 25.6825C82.4483 25.3319 81.089 24.1585 81.1508 22.1405H90.314C91.5079 16.7869 88.687 13.2449 84.3634 13.225ZM87.8025 19.5872H80.9449V19.546C80.9449 17.4251 82.4889 15.7165 84.3634 15.7165C86.2567 15.7165 87.8025 17.4251 87.8025 19.546V19.5872ZM106.581 28.0087H109.69V13.5948H106.581V28.0087ZM99.0442 19.6695C93.8347 18.7844 95.1529 14.3771 103.08 16.437V13.8837C100.877 13.1838 97.3349 12.9985 95.4404 13.8837C91.5291 15.7988 91.8167 21.7905 98.3025 22.4486C102.524 22.9639 101.844 27.8234 92.9502 24.9614V27.7822C95.7498 28.5651 99.25 28.8945 101.68 27.7822C103.285 26.7935 103.904 25.4554 103.924 24.1373C103.987 21.8317 102.463 20.1842 99.0442 19.6695ZM118.77 13.5948H112.078V16.437H115.662V28.0087H118.77V16.437H122.354V13.5948H118.77ZM69.4144 13.6978C68.9821 13.636 68.5086 13.6161 68.0146 13.6161H63.1345V28.0299H68.0764C68.5498 28.0299 69.0021 28.0087 69.4144 27.9469C74.5422 27.3917 75.6943 23.6233 75.6737 21.0488C75.6538 17.0751 73.5946 14.1925 69.4144 13.6978ZM69.4144 25.1679C68.9609 25.2708 68.4469 25.3325 67.8486 25.3325H66.2011V16.2929H67.8081C68.4051 16.2929 68.9403 16.3546 69.4138 16.4781C71.5347 17.014 72.5852 18.702 72.6052 20.9664C72.6258 22.4486 72.0088 24.5696 69.4144 25.1679Z" fill="#C9C9C9"/>
</svg>
