<svg width="22" height="22" viewBox="0 0 22 22" fill="none" xmlns="http://www.w3.org/2000/svg">
<g clip-path="url(#clip0)">
<path d="M11.0004 21.9998C17.0757 21.9998 22.0008 17.0748 22.0008 10.9994C22.0008 4.92407 17.0757 -0.000976562 11.0004 -0.000976562C4.92504 -0.000976562 0 4.92407 0 10.9994C0 17.0748 4.92504 21.9998 11.0004 21.9998Z" fill="#007AB9"/>
<path d="M17.5738 11.8854V16.4206H14.9444V12.1894C14.9444 11.1269 14.5647 10.4014 13.6127 10.4014C12.8862 10.4014 12.4546 10.8899 12.264 11.3628C12.1948 11.5319 12.1769 11.7666 12.1769 12.0037V16.4204H9.54733C9.54733 16.4204 9.58262 9.25405 9.54733 8.51223H12.1771V9.6329C12.1718 9.64172 12.1644 9.65035 12.1597 9.65878H12.1771V9.6329C12.5266 9.09521 13.1497 8.32653 14.5469 8.32653C16.2768 8.32653 17.5738 9.45681 17.5738 11.8854ZM6.79654 4.7002C5.89707 4.7002 5.30859 5.29063 5.30859 6.06637C5.30859 6.82564 5.88001 7.43314 6.76203 7.43314H6.77909C7.69621 7.43314 8.26645 6.82564 8.26645 6.06637C8.249 5.29063 7.69621 4.7002 6.79654 4.7002ZM5.46488 16.4206H8.0935V8.51223H5.46488V16.4206Z" fill="#F1F2F2"/>
</g>
<defs>
<clipPath id="clip0">
</clipPath>
</defs>
</svg>
