<svg width="18" height="18" viewBox="0 0 18 18" fill="none" xmlns="http://www.w3.org/2000/svg">
<path d="M16.558 13.0251L14.833 11.2584C14.462 10.9057 13.9939 10.672 13.489 10.5874C12.9841 10.5027 12.4655 10.571 11.9997 10.7834L11.2497 10.0334C12.1335 8.8525 12.5371 7.38064 12.3793 5.9141C12.2215 4.44757 11.514 3.09526 10.3992 2.12941C9.2844 1.16355 7.84511 0.655871 6.37105 0.70856C4.897 0.76125 3.49762 1.3704 2.45464 2.41338C1.41166 3.45636 0.80251 4.85574 0.74982 6.32979C0.69713 7.80385 1.20481 9.24314 2.17067 10.3579C3.13652 11.4727 4.48883 12.1802 5.95536 12.338C7.4219 12.4958 8.89376 12.0922 10.0747 11.2084L10.8163 11.9501C10.5789 12.4164 10.4938 12.9455 10.5731 13.4628C10.6523 13.9801 10.8919 14.4595 11.258 14.8334L13.0247 16.6001C13.4934 17.0682 14.1288 17.3312 14.7913 17.3312C15.4538 17.3312 16.0892 17.0682 16.558 16.6001C16.7961 16.3672 16.9853 16.0892 17.1145 15.7822C17.2437 15.4753 17.3102 15.1456 17.3102 14.8126C17.3102 14.4795 17.2437 14.1499 17.1145 13.8429C16.9853 13.536 16.7961 13.2579 16.558 13.0251ZM9.49133 9.49174C8.9082 10.0734 8.16575 10.4692 7.35778 10.6291C6.54982 10.789 5.71258 10.7059 4.95183 10.3902C4.19109 10.0746 3.54097 9.5405 3.08359 8.85552C2.62622 8.17055 2.38211 7.36538 2.38211 6.54174C2.38211 5.7181 2.62622 4.91294 3.08359 4.22796C3.54097 3.54298 4.19109 3.00892 4.95183 2.69325C5.71258 2.37758 6.54982 2.29445 7.35778 2.45437C8.16575 2.61428 8.9082 3.01008 9.49133 3.59174C9.87936 3.97879 10.1872 4.43858 10.3973 4.94479C10.6073 5.451 10.7154 5.99368 10.7154 6.54174C10.7154 7.0898 10.6073 7.63248 10.3973 8.13869C10.1872 8.6449 9.87936 9.10469 9.49133 9.49174ZM15.383 15.3834C15.3055 15.4615 15.2134 15.5235 15.1118 15.5658C15.0103 15.6081 14.9013 15.6299 14.7913 15.6299C14.6813 15.6299 14.5724 15.6081 14.4709 15.5658C14.3693 15.5235 14.2771 15.4615 14.1997 15.3834L12.433 13.6167C12.3549 13.5393 12.2929 13.4471 12.2506 13.3456C12.2083 13.244 12.1865 13.1351 12.1865 13.0251C12.1865 12.9151 12.2083 12.8061 12.2506 12.7046C12.2929 12.603 12.3549 12.5109 12.433 12.4334C12.5105 12.3553 12.6026 12.2933 12.7042 12.251C12.8057 12.2087 12.9147 12.1869 13.0247 12.1869C13.1347 12.1869 13.2436 12.2087 13.3451 12.251C13.4467 12.2933 13.5389 12.3553 13.6163 12.4334L15.383 14.2001C15.4611 14.2775 15.5231 14.3697 15.5654 14.4713C15.6077 14.5728 15.6295 14.6817 15.6295 14.7917C15.6295 14.9018 15.6077 15.0107 15.5654 15.1122C15.5231 15.2138 15.4611 15.3059 15.383 15.3834Z" fill="#555555"/>
</svg>
