<svg width="13" height="13" viewBox="0 0 13 13" fill="none" xmlns="http://www.w3.org/2000/svg">
<path d="M3.375 3.375H9.625C9.79076 3.375 9.94973 3.44085 10.0669 3.55806C10.1842 3.67527 10.25 3.83424 10.25 4C10.25 4.16576 10.1842 4.32473 10.0669 4.44194C9.94973 4.55915 9.79076 4.625 9.625 4.625H3.375C3.20924 4.625 3.05027 4.55915 2.93306 4.44194C2.81585 4.32473 2.75 4.16576 2.75 4C2.75 3.83424 2.81585 3.67527 2.93306 3.55806C3.05027 3.44085 3.20924 3.375 3.375 3.375ZM3.375 5.875H9.625C9.79076 5.875 9.94973 5.94085 10.0669 6.05806C10.1842 6.17527 10.25 6.33424 10.25 6.5C10.25 6.66576 10.1842 6.82473 10.0669 6.94194C9.94973 7.05915 9.79076 7.125 9.625 7.125H3.375C3.20924 7.125 3.05027 7.05915 2.93306 6.94194C2.81585 6.82473 2.75 6.66576 2.75 6.5C2.75 6.33424 2.81585 6.17527 2.93306 6.05806C3.05027 5.94085 3.20924 5.875 3.375 5.875ZM2.125 0.25H10.875C11.3723 0.25 11.8492 0.447544 12.2008 0.799175C12.5525 1.15081 12.75 1.62772 12.75 2.125V8.375C12.75 8.87228 12.5525 9.34919 12.2008 9.70083C11.8492 10.0525 11.3723 10.25 10.875 10.25H3.63125L1.31875 12.5687C1.26035 12.6267 1.19109 12.6725 1.11494 12.7036C1.03879 12.7347 0.957253 12.7505 0.874999 12.75C0.793014 12.7521 0.711674 12.735 0.6375 12.7C0.523362 12.6531 0.425658 12.5735 0.3567 12.4712C0.287742 12.3688 0.250615 12.2484 0.249999 12.125V2.125C0.249999 1.62772 0.447542 1.15081 0.799173 0.799175C1.1508 0.447544 1.62772 0.25 2.125 0.25ZM1.5 10.6187L2.93125 9.18125C2.98965 9.12332 3.05891 9.0775 3.13506 9.04639C3.21121 9.01529 3.29274 8.99952 3.375 9H10.875C11.0408 9 11.1997 8.93415 11.3169 8.81694C11.4342 8.69973 11.5 8.54076 11.5 8.375V2.125C11.5 1.95924 11.4342 1.80027 11.3169 1.68306C11.1997 1.56585 11.0408 1.5 10.875 1.5H2.125C1.95924 1.5 1.80027 1.56585 1.68306 1.68306C1.56585 1.80027 1.5 1.95924 1.5 2.125V10.6187Z" fill="#AAAAAA"/>
</svg>
