<svg width="124" height="40" viewBox="0 0 124 40" fill="none" xmlns="http://www.w3.org/2000/svg">
<path fill-rule="evenodd" clip-rule="evenodd" d="M62.9257 29.9402C63.1746 30.1846 63.4557 30.3936 63.7613 30.5617C64.8144 31.1394 66.0232 31.1426 67.1811 30.8286C67.6874 30.6865 68.1788 30.4958 68.6485 30.2593C69.1798 29.9953 69.6924 29.6952 70.1828 29.3613C70.7283 28.9896 71.2521 28.5871 71.7518 28.1557C72.121 28.7218 72.5347 29.2622 72.8975 29.6668C73.2603 30.0715 73.5736 30.3404 73.8624 30.5411C74.4215 30.9303 74.9303 31.0808 75.4559 31.0885C75.7087 31.0905 75.9544 31.0544 76.2188 30.9779C76.7393 30.8389 77.3999 30.4555 78.0304 29.8971L80.1841 28.0181C80.2193 27.9976 80.2518 27.9728 80.2806 27.9441C80.3475 27.8881 80.4653 27.7852 80.5431 27.7189C80.6039 27.6629 80.6706 27.6135 80.7419 27.5716C80.841 27.5349 80.875 27.6147 80.9477 27.6919C80.9767 27.7266 81.0121 27.773 81.0622 27.8521C81.1124 27.9312 81.1768 28.0425 81.2379 28.1557L82.3836 30.0798C82.4679 30.222 82.5682 30.3539 82.6904 30.4742C83.052 30.8377 83.5499 31.0499 83.9494 31.0422C84.2548 31.0415 84.5552 30.9648 84.8236 30.819C85.1137 30.673 85.4746 30.3655 85.8201 29.9428L87.3795 28.0637C87.5075 27.9081 87.6381 27.7543 87.7313 27.6572C87.8922 27.4918 87.9475 27.4668 88.0356 27.4217C88.1274 27.3794 88.2302 27.3668 88.3295 27.3857C88.4288 27.4046 88.5197 27.4541 88.5895 27.5272C88.6262 27.5607 88.6699 27.6031 88.769 27.7389C88.8668 27.8752 89.0205 28.1043 89.1659 28.3384L90.0369 29.6218C90.219 29.8888 90.4261 30.139 90.6063 30.3301C90.9832 30.7225 91.2483 30.8743 91.566 31.0107C91.732 31.0776 91.9115 31.1316 92.1405 31.169C92.3689 31.2063 92.6468 31.2275 92.9247 31.2262C93.2862 31.2326 93.6484 31.2172 93.9437 31.1883C94.2402 31.1593 94.4699 31.1168 95.1312 30.9251C95.7919 30.7341 96.8829 30.3951 97.9656 30.0348C98.4365 30.3539 98.9357 30.6318 99.3577 30.819C99.7461 30.9957 100.158 31.1142 100.581 31.1709C101.111 31.245 101.646 31.2788 102.182 31.2719C103.217 31.2657 104.25 31.1634 105.266 30.9663C106.232 30.7746 107.179 30.4951 108.094 30.1313C109.011 29.7701 109.9 29.3393 110.752 28.8428C111.339 29.4192 111.961 29.964 112.404 30.3056C112.849 30.6472 113.115 30.7862 113.373 30.8962C113.631 31.0062 113.88 31.0879 114.213 31.1419C114.546 31.1953 114.963 31.2217 115.331 31.2256C115.673 31.2298 116.015 31.2128 116.355 31.1747C117.526 31.0454 118.671 30.7421 119.752 30.2748C120.094 30.1249 120.389 29.9698 120.623 29.829C120.858 29.6881 121.032 29.5607 121.159 29.4533C121.257 29.3727 121.346 29.2817 121.425 29.1818C121.646 28.9 121.581 28.6871 121.48 28.4426C121.417 28.3262 121.323 28.2301 121.207 28.1654C121.087 28.1003 120.956 28.058 120.82 28.0406C120.703 28.0249 120.586 28.0172 120.468 28.0174C120.315 28.0161 120.116 28.02 119.79 28.0425C119.461 28.0644 119.005 28.1049 118.693 28.1281C118.379 28.1512 118.209 28.1583 118.043 28.1564C117.316 28.1481 116.605 27.9443 115.984 27.5665C115.856 27.489 115.736 27.4014 115.622 27.3046C115.181 26.9212 115.028 26.5166 115.256 26.1814C115.282 26.1422 115.316 26.0978 115.444 25.9884C115.572 25.8804 115.795 25.7073 116.023 25.5439L118.589 23.5741L117.443 22.1531L113.823 24.5365L112.265 22.0617H106.582L109.515 27.4237C108.945 27.7189 108.351 27.9711 107.827 28.1435C106.787 28.4812 105.929 28.5604 104.978 28.5687C104.781 28.5694 104.586 28.5578 104.402 28.5379C104.218 28.5179 104.049 28.489 103.825 28.4259C103.563 28.3502 103.305 28.2602 103.053 28.1564C103.68 27.7604 104.291 27.3404 104.886 26.8974C105.312 26.5732 105.466 26.4066 105.59 26.2612C105.849 25.9543 105.968 25.7331 106.062 25.4661C106.169 25.1669 106.215 24.7887 106.215 24.3988C106.217 24.148 106.185 23.8971 106.125 23.6629C106.008 23.2023 105.761 22.7852 105.412 22.4619C105.221 22.2849 105.006 22.1355 104.773 22.018C104.502 21.8805 104.214 21.7781 103.917 21.7131C103.593 21.641 103.232 21.6011 102.814 21.6037C102.397 21.6063 101.924 21.6513 101.45 21.7439C100.975 21.8366 100.498 21.9768 100.049 22.1556C99.5989 22.3351 99.1769 22.5532 98.8 22.7938C98.423 23.0344 98.091 23.2975 97.8074 23.569C96.5536 24.797 96.1965 26.0553 96.2885 27.3156C96.2988 27.4307 96.3162 27.5433 96.3573 27.7138C96.3998 27.8849 96.468 28.1139 96.5458 28.3397C96.2358 28.3416 95.9251 28.3262 95.698 28.3011C95.5304 28.2851 95.3648 28.2521 95.2039 28.2027C94.8482 28.0901 94.5934 27.9203 94.3194 27.6057C94.2177 27.4873 94.1032 27.3407 93.9424 27.0776C93.7816 26.8144 93.5796 26.4323 93.3834 26.0483L92.2827 23.8939C92.1334 23.6012 91.9758 23.3117 91.8478 23.1065C91.7198 22.9012 91.6227 22.7797 91.5352 22.6819C91.063 22.1672 90.7034 22.1222 90.2672 22.1068C90.0626 22.104 89.8582 22.1208 89.6567 22.1569C89.4977 22.1852 89.3434 22.2352 89.1981 22.3055C89.0417 22.3832 88.8933 22.4759 88.7548 22.5822C88.5876 22.7063 88.3894 22.8704 87.8967 23.4513C87.4052 24.0315 86.6204 25.0293 85.8677 26.0476L84.767 23.6648C84.6486 23.4075 84.5045 23.1605 84.3502 22.9598C84.1958 22.7591 84.0337 22.604 83.8613 22.4805C83.2392 22.0379 82.4653 21.9955 81.793 22.2997C81.6749 22.3523 81.5608 22.4134 81.4514 22.4824C81.3299 22.5577 81.1999 22.6497 81.0545 22.7681C80.9091 22.8864 80.7477 23.0331 80.5431 23.2493C80.3385 23.4654 80.0896 23.7517 79.7242 24.2432C79.3588 24.7346 78.8763 25.432 78.563 25.8456C78.2504 26.2606 78.1095 26.3924 77.9989 26.4857C77.7351 26.7089 77.5756 26.7746 77.3896 26.7803C77.2275 26.781 77.0706 26.7064 76.9271 26.5462C76.8721 26.4836 76.8226 26.4165 76.7792 26.3455C76.7225 26.2586 76.6608 26.148 76.5791 25.9543C76.4974 25.7607 76.3945 25.4815 76.2471 25.0203C76.1011 24.559 75.9107 23.9164 75.7698 23.5079C75.6289 23.0994 75.5402 22.925 75.463 22.7867C75.4031 22.6759 75.3367 22.5687 75.2642 22.4657C75.2148 22.3945 75.1597 22.3274 75.0995 22.265C74.6659 21.8289 74.2529 21.8604 73.8521 22.0553C73.7601 22.1035 73.6637 22.1704 73.544 22.2669C73.4243 22.3634 73.2828 22.4915 73.0049 22.8935C72.727 23.2956 72.314 23.973 71.9808 24.4767C71.6488 24.9804 71.3967 25.3117 71.1857 25.5587C71.0199 25.7549 70.8383 25.9372 70.6427 26.1036C70.0457 26.6099 69.479 26.8183 68.9303 26.8923C68.6678 26.9289 68.3018 26.9289 67.9518 26.8897C67.8109 26.8745 67.6715 26.8478 67.5349 26.8099C67.194 26.7191 66.8891 26.5261 66.6613 26.2567C66.5447 26.119 66.4384 25.9728 66.3435 25.8193C67.6475 24.2078 68.8614 22.5165 69.6218 21.2962C70.3822 20.0759 70.6897 19.3258 70.9232 18.6445C71.1567 17.9633 71.3175 17.3528 71.4205 16.7577C71.5234 16.162 71.5684 15.583 71.5684 15.1051C71.5697 14.6271 71.5247 14.2508 71.4353 13.9014C71.3471 13.5515 71.214 13.2285 71.0435 12.941C70.873 12.6534 70.6627 12.4013 70.4253 12.1954C70.1892 11.9902 69.9254 11.8313 69.6527 11.7271C69.3799 11.6229 69.1001 11.5733 68.7997 11.5675C68.4768 11.5652 68.1548 11.6028 67.8411 11.6795C67.4772 11.7663 67.1234 11.8912 66.7855 12.0519C66.4162 12.2269 66.0264 12.4585 65.6173 12.7647C65.2081 13.0709 64.7777 13.4537 64.3358 13.933C63.843 14.4721 63.3963 15.0516 63.0003 15.6654C62.5609 16.3434 62.1331 17.1237 61.8166 17.8854C61.5001 18.6471 61.2943 19.392 61.1515 20.2991C61.0087 21.2061 60.9289 22.2766 60.9372 23.3445C60.9372 23.8096 60.954 24.274 60.9848 24.6954C61.0157 25.1161 61.0601 25.4931 61.1135 25.8347C61.1669 26.1756 61.228 26.4806 61.3033 26.7823C61.0923 26.9554 60.8699 27.114 60.6375 27.257C60.4297 27.3831 60.2489 27.4693 60.0874 27.5324C59.9468 27.5888 59.8012 27.6318 59.6526 27.661C59.5397 27.6829 59.4253 27.6956 59.3103 27.699C59.0697 27.7009 58.9083 27.6585 58.7166 27.5433C58.5839 27.4582 58.4689 27.348 58.3782 27.2191C58.3197 27.14 58.2585 27.0441 58.1942 26.9154C58.1299 26.7868 58.0598 26.6266 58.0038 26.4613L56.4 21.7414L51.4962 22.9334L52.5049 26.7366C52.2077 26.8736 51.906 27.0004 51.7091 27.0724C51.5936 27.1194 51.4735 27.1544 51.3508 27.1766C51.193 27.2099 51.0293 27.201 50.876 27.1509C50.7667 27.1097 50.683 27.0409 50.5955 26.9187C50.5602 26.8704 50.5203 26.8087 50.4386 26.624C50.3569 26.4394 50.234 26.1306 50.1214 25.8199L49.1591 23.4371C49.0841 23.2547 48.9929 23.0794 48.8863 22.9135C48.6849 22.6027 48.5061 22.4503 48.3118 22.3371C48.2061 22.2761 48.0921 22.2306 47.9735 22.202C47.8461 22.1704 47.7007 22.1531 47.5244 22.155C47.3482 22.1569 47.1404 22.1775 46.9287 22.2245C46.7171 22.2714 46.5016 22.3448 46.2475 22.4606C45.9934 22.5764 45.6994 22.7366 45.2574 23.0473C44.7055 23.4425 44.1722 23.8632 43.6595 24.3081C43.3124 23.8573 42.9345 23.4311 42.5286 23.0325C41.8563 22.395 41.4214 22.1885 40.8965 21.9807C40.3581 21.78 39.7469 21.6957 39.1223 21.6963C38.4037 21.6976 37.6485 21.7825 36.9261 22.081C36.3099 22.3324 35.7736 22.7464 35.3744 23.2789C35.2366 23.4617 35.1123 23.6543 35.0026 23.8553C34.8694 24.0952 34.724 24.3963 34.5491 24.8878C34.3741 25.3792 34.1702 26.0624 34.0209 26.4825C33.8717 26.9026 33.779 27.0583 33.696 27.1773C33.3467 27.6758 33.0663 27.6855 32.7826 27.6996C32.4564 27.7016 32.0807 27.6057 31.7906 27.2898C31.7166 27.2133 31.6388 27.1174 31.5481 26.9849C31.4574 26.8524 31.3538 26.6826 31.2058 26.377C31.0188 25.984 30.8463 25.5842 30.6886 25.1785L29.1762 21.2827C29.0514 20.9617 28.9105 20.6458 28.769 20.3975C28.6275 20.1492 28.4898 19.9665 28.3547 19.8205C27.8755 19.32 27.4798 19.2351 27.0141 19.2203C26.8386 19.2187 26.6633 19.2334 26.4904 19.264C26.1701 19.3258 25.9507 19.4248 25.6908 19.603C25.5344 19.7164 25.3875 19.8423 25.2514 19.9794C25.0797 20.1479 24.8738 20.3673 24.4023 21.0402C23.9301 21.7137 23.1916 22.8414 22.4859 23.9858L20.2401 16.9745C20.1571 16.7105 20.0622 16.4503 19.9558 16.1948C19.882 16.0189 19.7947 15.849 19.6946 15.6866C19.6253 15.5723 19.5468 15.4639 19.4598 15.3624C18.9883 14.8368 18.5573 14.786 18.1224 14.775C18.0004 14.7753 17.8785 14.7839 17.7576 14.8008C17.4714 14.8458 17.2481 14.9333 17.0185 15.1404C16.9377 15.217 16.8632 15.3001 16.7959 15.3888C16.7149 15.4943 16.6222 15.6261 16.4582 15.9703C16.2935 16.3145 16.0593 16.8709 15.8406 17.4332L13.3658 23.8025L10.249 11.9793C10.1371 11.5547 9.99108 11.1378 9.83347 10.7969C9.67586 10.4559 9.50989 10.1883 9.33491 9.96829C9.15993 9.74828 8.97723 9.57588 8.77974 9.43629C8.57986 9.29334 8.35771 9.18444 8.12229 9.11399C7.6949 8.99314 7.24613 8.968 6.80792 9.04039C6.36971 9.11278 5.95286 9.2809 5.58704 9.53278C5.27982 9.74409 5.00336 9.99695 4.76555 10.2842C4.48829 10.6122 4.20395 11.0297 3.88616 11.6351C3.24543 12.8297 2.53265 14.775 2.23223 16.4579C2.08379 17.2324 2.00606 18.0187 2 18.8073C2 18.9243 2.00708 19.0421 2.01866 19.1399C2.05661 19.3811 2.09071 19.5747 2.30299 19.7754C2.5185 19.9491 2.74044 19.9684 3.01127 19.9433C3.2242 19.9266 3.50275 19.7349 3.62819 19.5348C3.66872 19.4776 3.70925 19.4113 3.74978 19.3309C3.89035 19.0362 3.9893 18.7233 4.04377 18.4013C4.10617 18.07 4.17693 17.5715 4.24447 17.1012C4.31138 16.631 4.37571 16.1897 4.43103 15.9079C4.48571 15.6261 4.53139 15.5033 4.57063 15.4081C4.60987 15.3128 4.64203 15.2459 4.6742 15.19C4.72824 15.0999 4.77648 15.0343 4.86462 14.9648C4.95052 14.8989 5.05611 14.8638 5.16439 14.8651C5.27633 14.8522 5.41335 14.914 5.44809 15.0086C5.4616 15.0337 5.47704 15.0658 5.49762 15.1154C5.51821 15.1649 5.5433 15.2299 5.61084 15.4885C5.67903 15.7477 5.78711 16.2 5.89454 16.6535L8.55266 27.881C8.66716 28.3642 8.81834 28.8389 8.97531 29.2204C9.13227 29.6012 9.29438 29.8875 9.45907 30.1184C9.6244 30.3487 9.79294 30.5237 9.97049 30.664C10.4903 31.0705 11.104 31.1657 11.7653 31.0332C12.0947 30.9573 12.3796 30.8177 12.6833 30.5758C12.837 30.453 12.9959 30.2999 13.1696 30.0972C13.3433 29.8946 13.5312 29.6418 13.7434 29.2873C13.9557 28.9335 14.1931 28.4787 14.3919 28.0727C14.5886 27.6675 14.7765 27.258 14.9554 26.8447C15.1587 26.3796 15.4057 25.8077 15.6425 25.2892C15.8792 24.7707 16.1063 24.3069 16.343 23.8482L16.4453 24.1254C16.482 24.2258 16.5219 24.3384 16.747 24.9907C16.9722 25.643 17.382 26.8337 17.6759 27.6501C17.9699 28.4671 18.1481 28.9084 18.3173 29.2603C18.4865 29.6128 18.6467 29.8759 18.7985 30.0882C19.2597 30.7251 19.6702 30.9637 20.089 31.0763C20.4892 31.1761 20.9107 31.1476 21.2939 30.9946C21.5615 30.8865 21.8111 30.7315 22.0838 30.48C22.2305 30.3442 22.3881 30.1744 22.5772 29.9415C22.7664 29.7087 22.987 29.4115 23.3737 28.7006C23.7596 27.9904 24.3116 26.8666 24.8211 25.7266L26.1958 28.8891C26.3586 29.2641 26.5715 29.6192 26.8069 29.9119C27.0263 30.1871 27.2869 30.4267 27.5795 30.6221C27.8594 30.8081 28.1604 30.947 28.4911 31.0403C28.8327 31.1361 29.1862 31.1833 29.541 31.1805C30.0505 31.161 30.5554 31.0756 31.0431 30.9264C31.6295 30.746 32.1985 30.5133 32.7433 30.231C33.3515 29.9195 33.9355 29.563 34.4905 29.1644C34.8225 29.5121 35.175 29.8394 35.5462 30.1448C36.176 30.6466 36.562 30.8132 37.0451 30.9811C37.2863 31.0589 37.543 31.1201 37.8531 31.1599C38.1631 31.1998 38.5266 31.2198 38.8071 31.2249C39.0882 31.2301 39.2863 31.2204 39.4761 31.2043C40.5536 31.0943 41.6157 30.8441 42.6122 29.6906C42.7479 29.533 42.8895 29.3536 43.0644 29.0467C43.2394 28.7392 43.4478 28.3056 43.6267 27.9254C43.8049 27.5452 43.9522 27.2197 44.0603 27.0261C44.1683 26.8325 44.2372 26.7688 44.2976 26.7218C44.5183 26.5449 44.7203 26.5745 44.9178 26.6819C44.9699 26.7122 45.0246 26.752 45.0883 26.8119C45.1519 26.8717 45.224 26.9515 45.3231 27.102C45.4221 27.2525 45.5482 27.4751 45.7515 27.8939C45.9548 28.3127 46.2365 28.929 46.445 29.3285C46.654 29.7286 46.7898 29.9119 46.9107 30.0651C47.0317 30.2182 47.1385 30.3404 47.2414 30.444C47.8538 31.039 48.3955 31.1702 48.9738 31.1805C49.6409 31.1831 50.2359 31.0718 50.8368 30.8158C51.1436 30.6865 51.4698 30.5179 51.9478 30.1654C52.4264 29.8129 53.0562 29.2776 53.648 28.7057C54.0395 29.1871 54.4516 29.6514 54.8831 30.0972C55.217 30.4356 55.4209 30.5951 55.5998 30.7174C55.9787 30.9721 56.2341 31.0692 56.5512 31.1329C56.7178 31.1651 56.9018 31.1812 57.0852 31.1805C57.5142 31.1644 57.9401 31.0918 58.4618 30.9309C59.5008 30.6157 60.9141 29.9261 62.1949 29.0268C62.4022 29.3586 62.6474 29.6652 62.9257 29.9402ZM67.872 14.1427C67.984 14.1549 68.1248 14.2604 68.1776 14.3595C68.2393 14.463 68.2657 14.5486 68.296 14.6766C68.3133 14.7564 68.33 14.8548 68.3423 14.997C68.3551 15.1385 68.3622 15.3238 68.3622 15.5084C68.346 15.9977 68.2957 16.4852 68.2117 16.9674C68.1206 17.4978 68.0045 18.0235 67.8637 18.5429C67.7413 18.9969 67.5867 19.4417 67.4011 19.8739C66.9865 20.8397 66.5035 21.7746 65.9556 22.6716C65.8293 22.8799 65.6908 23.0805 65.5407 23.2724C65.4751 23.358 65.4033 23.4387 65.3258 23.5137C65.1811 23.6404 65.0949 23.7067 65.0029 23.6365C64.9514 23.5728 64.9424 23.5336 64.9186 23.4551C64.901 23.3896 64.8864 23.3232 64.8749 23.2563C64.8487 23.1011 64.8311 22.9445 64.8221 22.7874C64.8028 22.454 64.7905 22.1203 64.7855 21.7864C64.8041 21.2235 64.8633 20.6632 64.9855 19.9742C65.1084 19.2859 65.2943 18.4695 65.4841 17.7941C65.6726 17.1186 65.8649 16.584 66.0367 16.1665C66.2104 15.749 66.3635 15.4479 66.4966 15.2157C66.6311 14.9841 66.7469 14.822 66.8511 14.6933C67.1805 14.2906 67.4815 14.1337 67.7646 14.1324C67.8019 14.1337 67.8386 14.1369 67.872 14.1427ZM100.413 25.3722C100.456 25.1884 100.521 25.0106 100.608 24.8427C100.694 24.6716 100.805 24.5089 100.932 24.3654C101.412 23.8353 101.986 23.6262 102.534 23.7478C102.631 23.7703 102.722 23.8038 102.803 23.8456C102.884 23.8868 102.956 23.9376 103.016 23.9929C103.393 24.3673 103.31 24.7437 103.169 25.1258C103.128 25.2223 103.074 25.3246 102.999 25.4378C102.924 25.5516 102.828 25.6758 102.691 25.8263C102.498 26.0343 102.289 26.227 102.067 26.4027C101.755 26.6543 101.31 26.9811 100.853 27.2892C100.613 26.9618 100.448 26.6472 100.393 26.3616C100.33 26.0637 100.334 25.7183 100.413 25.3722ZM40.735 24.5629C41.095 24.6775 41.3948 24.9303 41.5687 25.2656C41.7426 25.601 41.7764 25.9917 41.6627 26.3519C41.5765 26.6372 41.3997 26.8865 41.159 27.0621C40.9739 27.1966 40.7594 27.285 40.5333 27.32C40.3072 27.355 40.076 27.3356 39.8589 27.2635C39.7091 27.2143 39.5682 27.1416 39.4414 27.048C39.1885 26.8629 39.001 26.6023 38.9061 26.3037C38.8125 26.0212 38.8144 25.7158 38.9115 25.4344C39.0086 25.1531 39.1954 24.9115 39.4433 24.7469C39.6317 24.6228 39.8452 24.5419 40.0686 24.5101C40.2919 24.4783 40.5195 24.4963 40.735 24.5629ZM74.3642 15.5129C73.8135 15.5137 73.277 15.6876 72.8306 16.0102C72.6039 16.1732 72.4045 16.3713 72.24 16.5969C71.7498 17.2846 71.6347 18.081 71.8785 18.8375C71.9615 19.0877 72.0882 19.3348 72.2542 19.5606C72.4202 19.7857 72.626 19.989 72.855 20.1531C73.5697 20.6529 74.3629 20.7661 75.1503 20.5249C75.6737 20.359 76.1297 20.0287 76.4504 19.5831C76.9406 18.8896 77.0545 18.0842 76.8132 17.2974C76.7308 17.0395 76.6084 16.7962 76.4504 16.5763C76.2125 16.2457 75.899 15.9768 75.5361 15.7918C75.1733 15.6069 74.7715 15.5113 74.3642 15.5129ZM121.115 23.7317C121.299 23.6726 121.472 23.5838 121.628 23.4693C121.783 23.3554 121.917 23.2165 122.026 23.0621C122.358 22.5815 122.434 22.0186 122.271 21.4673C122.159 21.1043 121.933 20.787 121.627 20.5622C121.394 20.391 121.123 20.2779 120.837 20.2324C120.552 20.1868 120.259 20.2102 119.984 20.3004C119.8 20.3596 119.625 20.4483 119.469 20.5622C119.315 20.6761 119.179 20.8144 119.07 20.9681C118.733 21.4525 118.663 22.0077 118.823 22.5616C118.935 22.9259 119.162 23.2444 119.469 23.4699C119.703 23.641 119.974 23.754 120.261 23.7995C120.547 23.845 120.84 23.8218 121.115 23.7317ZM119.169 21.5387C119.216 21.3875 119.285 21.2447 119.374 21.1174C119.463 20.9906 119.573 20.8787 119.697 20.788C119.944 20.6073 120.242 20.5099 120.549 20.5099C120.855 20.5099 121.153 20.6073 121.4 20.788C121.522 20.8787 121.631 20.99 121.721 21.118C121.999 21.5252 122.062 22.0051 121.925 22.4889C121.838 22.7906 121.655 23.0555 121.403 23.2435C121.014 23.5259 120.556 23.5896 120.099 23.4506C119.805 23.3551 119.55 23.1665 119.373 22.9135C119.099 22.512 119.03 22.0212 119.169 21.5387ZM120.534 22.1544L121.076 23.0569H121.425L120.839 22.1402C120.99 22.1209 121.199 22.0624 121.306 21.8649C121.358 21.7633 121.383 21.6502 121.378 21.5363C121.374 21.4224 121.341 21.3114 121.282 21.2139C121.066 20.9617 120.895 20.9913 120.648 20.9745H119.865V23.0563H120.176V22.1537H120.534V22.1544ZM120.176 21.2428H120.599C120.745 21.2473 120.962 21.2492 121.032 21.4467C121.058 21.5445 121.072 21.7304 120.914 21.8276C120.863 21.8564 120.806 21.8734 120.748 21.8771C120.595 21.8945 120.366 21.8848 120.175 21.8874V21.2428H120.176Z" fill="#C9C9C9"/>
</svg>
