<svg width="11" height="18" viewBox="0 0 11 18" fill="none" xmlns="http://www.w3.org/2000/svg">
<path d="M2.92867 17.535L10.1852 10.193C10.3456 10.0339 10.4729 9.84459 10.5598 9.63603C10.6467 9.42748 10.6914 9.20378 10.6914 8.97785C10.6914 8.75192 10.6467 8.52823 10.5598 8.31968C10.4729 8.11112 10.3456 7.92183 10.1852 7.76273L2.92867 0.50624C2.76957 0.34583 2.58029 0.218508 2.37173 0.131621C2.16318 0.0447336 1.93948 0 1.71355 0C1.48762 0 1.26393 0.0447336 1.05537 0.131621C0.846819 0.218508 0.657533 0.34583 0.498432 0.50624C0.179675 0.826899 0.000759125 1.26067 0.000759125 1.7128C0.000759125 2.16494 0.179675 2.59871 0.498432 2.91937L6.55692 8.97785L0.498432 15.0363C0.182254 15.3551 0.00400639 15.7854 0.00211525 16.2343C0.000813484 16.4596 0.0439835 16.6829 0.129152 16.8914C0.214322 17.0999 0.339814 17.2896 0.498432 17.4495C0.651808 17.6156 0.836584 17.7497 1.04209 17.844C1.24759 17.9383 1.46974 17.991 1.69571 17.9989C1.92168 18.0069 2.14699 17.97 2.35861 17.8904C2.57024 17.8107 2.76399 17.69 2.92867 17.535Z" fill="#AAAAAA"/>
</svg>
