<svg width="124" height="40" viewBox="0 0 124 40" fill="none" xmlns="http://www.w3.org/2000/svg">
<path d="M12.5815 17.3926C12.5815 20.2214 11.2134 22.1374 7.74869 22.1374H6.65391V13.1281C7.04311 13.1061 7.40659 13.1061 7.74869 13.1061C11.0293 13.1058 12.5815 14.6564 12.5815 17.3926ZM9.02506 26.0601C15.2244 26.0601 19.144 22.8662 19.144 17.3024C19.1437 11.1889 14.9505 9 8.11341 9C5.46926 9 2.2785 9.1819 0 9.45551V31.2613H6.65422V26.0601H9.02506ZM98.1811 17.3926C98.1811 20.2214 96.8149 22.1374 93.3493 22.1374H92.2582V13.1281C92.644 13.1061 93.0081 13.1061 93.3493 13.1061C96.6302 13.1058 98.1811 14.6564 98.1811 17.3926ZM94.6288 26.0601C100.823 26.0601 104.745 22.8662 104.745 17.3024C104.745 11.1889 100.552 9 93.7146 9C91.0711 9 87.8785 9.1819 85.5997 9.45551V31.2613H92.2573V26.0601H94.6288ZM113.404 15.0205C113.404 13.835 114.59 13.2868 116.503 13.2868C118.601 13.2868 120.881 13.7432 122.43 14.3844L121.883 9.63865C120.15 9.27362 118.601 9 115.775 9C110.396 9 106.751 11.122 106.751 15.5696C106.751 23.2312 117.145 21.6816 117.145 25.2395C117.145 26.6067 116.141 27.3361 113.678 27.3361C111.494 27.3361 108.118 26.6067 106.113 25.6036L106.844 30.6229C108.848 31.3527 111.583 31.7165 113.771 31.7165C119.331 31.7165 123.89 29.8913 123.89 24.4165C123.89 17.1205 113.404 18.4877 113.404 15.0205ZM80.5878 9.45551H73.9336V31.2613H80.5878V9.45551ZM53.6031 9.45551H46.9483V31.2613H53.6031V9.45551ZM65.1806 26.8806V9.45551H58.5257V31.2613H70.5603L71.5621 26.8806H65.1806ZM42.0259 9.45551H35.3711V18.1227H28.4426V9.45551H21.7866V31.2613H28.4423V22.6843H35.3708V31.2613H42.0256L42.0259 9.45551Z" fill="#C9C9C9"/>
</svg>
