<svg width="11" height="18" viewBox="0 0 11 18" fill="none" xmlns="http://www.w3.org/2000/svg">
<path d="M7.76273 0.46496L0.50624 7.80702C0.34583 7.96613 0.218509 8.15541 0.131622 8.36397C0.0447344 8.57252 0 8.79622 0 9.02215C0 9.24808 0.0447344 9.47177 0.131622 9.68032C0.218509 9.88888 0.34583 10.0782 0.50624 10.2373L7.76273 17.4938C7.92183 17.6542 8.11112 17.7815 8.31967 17.8684C8.52823 17.9553 8.75192 18 8.97785 18C9.20378 18 9.42748 17.9553 9.63603 17.8684C9.84459 17.7815 10.0339 17.6542 10.193 17.4938C10.5117 17.1731 10.6906 16.7393 10.6906 16.2872C10.6906 15.8351 10.5117 15.4013 10.193 15.0806L4.13449 9.02215L10.193 2.96366C10.5092 2.64489 10.6874 2.21463 10.6893 1.76565C10.6906 1.54042 10.6474 1.31714 10.5623 1.10862C10.4771 0.900103 10.3516 0.710447 10.193 0.550529C10.0396 0.384392 9.85482 0.250296 9.64932 0.155983C9.44382 0.0616722 9.22166 0.00901604 8.99569 0.00105858C8.76972 -0.00689697 8.54442 0.0300026 8.33279 0.109627C8.12117 0.189251 7.92741 0.31002 7.76273 0.46496Z" fill="#AAAAAA"/>
</svg>
