<svg width="124" height="40" viewBox="0 0 124 40" fill="none" xmlns="http://www.w3.org/2000/svg">
<path d="M112.519 21.7568H105.765C105.34 21.7568 104.982 21.417 104.982 21.0496C104.982 20.6792 105.34 20.324 105.765 20.324H113.926L113.922 20.3281H113.93C113.93 21.1136 113.299 21.752 112.519 21.7568ZM115.936 18.6098C115.936 16.7645 114.498 15.5216 112.666 15.5216H105.303C104.788 15.5216 104.364 15.9932 104.364 16.4753C104.364 16.9585 104.788 17.4123 105.303 17.4123L112.81 17.4149C113.392 17.4149 113.864 17.891 113.864 18.4769H113.861L113.864 18.4795H105.934C104.154 18.4795 103.036 19.4563 103.036 21.0496C103.036 22.4399 104.188 23.6446 105.934 23.6446H111.917C114.602 23.6446 115.937 22.4399 115.937 20.3806C115.937 20.2853 115.953 18.8328 115.937 18.6098H115.936ZM20.5262 18.768H10.1924V17.5109C10.1924 16.817 10.7526 16.2527 11.4394 16.2527H20.5262C21.2163 16.2527 21.7762 16.817 21.7762 17.5109C21.7762 18.2048 21.2163 18.768 20.5265 18.768H20.5262ZM22.8122 19.8528C23.1478 19.5553 23.4164 19.1899 23.6002 18.7808C23.784 18.3716 23.8788 17.9281 23.8783 17.4796C23.8783 15.7349 22.473 14.321 20.7428 14.321H11.2041C9.47279 14.321 8.06641 15.7352 8.06641 17.4796V22.699C8.06641 23.247 8.60208 23.703 9.14892 23.703C9.69614 23.703 10.208 23.2474 10.208 22.699V20.6922H20.0173C21.1709 20.6922 21.6533 20.8176 21.6705 22.0453V22.8141C21.672 23.3508 22.1901 23.7923 22.7221 23.7923C23.2537 23.7923 23.7514 23.3508 23.7514 22.8141V21.7453C23.7514 20.8605 23.4316 20.247 22.8125 19.8528H22.8122ZM101.813 15.5205H91.0465C90.4941 15.5205 90.0377 16.0036 90.0377 16.5218C90.0377 17.0411 90.4941 17.5463 91.0465 17.5463L94.6961 17.5474C95.046 17.5474 95.3301 17.8333 95.3301 18.1851V22.6692C95.3301 23.2295 95.8806 23.6818 96.439 23.6818C96.9948 23.6818 97.5476 23.2295 97.5476 22.6692H97.5491V18.1836C97.5491 17.831 97.832 17.5463 98.1797 17.5463H101.813C102.366 17.5463 102.822 17.0415 102.822 16.5226C102.822 16.004 102.366 15.5212 101.813 15.5212V15.5205ZM85.6295 15.5178H80.6081C78.4092 15.5536 76.635 17.3553 76.635 19.5762V22.6659C76.635 23.2258 77.1796 23.6896 77.7362 23.6896C78.2934 23.6896 78.8135 23.2258 78.8157 22.6659V19.5762C78.8157 18.4553 79.7173 17.5452 80.8326 17.5452H85.4039C86.5203 17.5452 87.4222 18.4553 87.4222 19.5762V22.6659C87.4222 23.2258 87.9304 23.6814 88.4869 23.6814C89.0453 23.6814 89.5988 23.2258 89.5988 22.6659V19.5762C89.5988 17.3553 87.8291 15.5536 85.6295 15.5178ZM59.225 15.4628C58.667 15.4628 58.1459 15.9255 58.1459 16.4872V19.5762C58.1459 20.6993 57.2428 21.6083 56.1286 21.6083L52.9391 21.6109C52.844 21.6105 52.7499 21.5914 52.6621 21.5546C52.5744 21.5179 52.4948 21.4642 52.4278 21.3966C52.3608 21.3291 52.3078 21.249 52.2717 21.161C52.2357 21.0729 52.2173 20.9787 52.2177 20.8835V16.4675C52.2166 15.9039 51.6698 15.4363 51.1084 15.4363C50.5455 15.4363 50.021 15.9039 50.021 16.4675L50.0169 20.8835C50.0173 20.9785 49.999 21.0726 49.963 21.1604C49.9269 21.2483 49.8739 21.3281 49.807 21.3955C49.74 21.4628 49.6605 21.5162 49.5728 21.5528C49.4852 21.5893 49.3912 21.6082 49.2962 21.6083H46.1105C44.9949 21.6083 44.0929 20.6993 44.0929 19.5762V16.4872C44.0929 15.9251 43.5498 15.4628 42.994 15.4628C42.4367 15.4628 41.9156 15.9255 41.9156 16.4872V18.8827H41.9185V19.5814C41.9185 21.8038 43.6826 23.5902 45.8812 23.6252H49.5929C50.6464 23.6252 51.1166 23.0914 51.1177 23.0914C51.1177 23.0914 51.7301 23.6356 52.5747 23.6356C53.4212 23.6356 56.3535 23.6248 56.3535 23.6248C58.5527 23.5902 60.3236 21.8038 60.3236 19.5814V18.8823H60.3251V16.4868C60.3236 15.9255 59.7819 15.4631 59.225 15.4631V15.4628ZM35.9684 21.6079H29.7834C28.7132 21.6079 27.8454 20.6561 27.8454 19.5773C27.8454 18.5015 28.7132 17.5504 29.7834 17.5504H35.9684C37.0386 17.5504 37.9064 18.5015 37.9064 19.5773C37.9064 20.6561 37.0386 21.6079 35.9684 21.6079ZM36.127 15.5178H29.627C27.398 15.5178 25.5922 17.3352 25.5922 19.5773C25.5922 21.8212 27.398 23.6405 29.627 23.6405H36.127C38.3549 23.6405 40.1604 21.8212 40.1604 19.5773C40.1604 17.3352 38.3549 15.5178 36.127 15.5178ZM66.0596 17.4074L66.0622 17.4059H72.2368C72.6631 17.4059 73.0201 17.7402 73.0201 18.1125C73.0201 18.4836 72.6627 18.8365 72.2368 18.8365H64.0387C64.3376 18.003 65.1305 17.4074 66.0596 17.4074ZM68.5295 20.6833H72.0667C73.8472 20.6833 74.9636 19.7046 74.9636 18.1125C74.9636 16.721 73.8145 15.5178 72.0667 15.5178H66.0823C63.8563 15.5178 62.0493 17.3352 62.0493 19.5773C62.0493 21.8209 63.8563 23.6408 66.0823 23.6408H72.8328C73.3476 23.6382 73.7731 23.1692 73.7731 22.6845C73.7731 22.2021 73.3473 21.7479 72.8328 21.7479H66.0622L66.0555 21.7438C65.6832 21.7426 65.3176 21.6446 64.9946 21.4594C64.6716 21.2741 64.4024 21.0081 64.2133 20.6874H68.5295V20.6833Z" fill="#C9C9C9"/>
<path d="M10.1416 34.3128C5.09212 34.3128 1 30.1525 1 25.0236V14.29C1 9.16107 5.09176 5 10.1416 5H113.859C118.908 5 123 9.16107 123 14.29V25.0236C123 30.1525 118.908 34.3128 113.859 34.3128H10.1416Z" stroke="#C9C9C9" stroke-width="2"/>
</svg>
