<svg width="101" height="33" viewBox="0 0 101 33" fill="none" xmlns="http://www.w3.org/2000/svg">
<g clip-path="url(#clip0)">
<path d="M51.6835 19.7513C51.0964 19.7513 50.8559 19.5103 50.8559 18.8587V18.1061H48.0936V19.4899C48.0936 20.7514 49.5761 21.5609 51.7279 21.5609C54.1148 21.5609 55.0782 20.4562 55.2629 19.5806C55.2925 19.377 55.3134 19.0461 55.3134 18.767C55.3134 18.3827 55.3029 18.1061 55.2489 17.731C55.1426 16.4779 53.9605 15.8094 52.8943 15.4003C51.3846 14.8199 50.9786 14.4942 50.8664 13.9749C50.8175 13.8222 50.8271 13.5066 50.8664 13.3504C50.9466 13.0883 51.2966 12.8905 51.7061 12.8905C52.1747 12.8905 52.5537 13.2019 52.5537 13.5888V14.4033H55.147V13.1883C55.147 11.6153 53.3203 11.1275 51.7383 11.1308C50.0431 11.1351 48.6641 11.6416 48.3723 12.9406C48.3139 13.2493 48.2772 13.6422 48.2772 14.0571C48.2772 14.8097 48.3923 15.4587 48.5579 15.7557C48.7304 16.0713 49.3393 16.6813 50.882 17.3728C52.3882 18.0499 52.4666 18.2891 52.558 18.6166C52.5807 18.693 52.5921 18.7744 52.5921 18.8585C52.5921 19.3517 52.1861 19.7513 51.6835 19.7513ZM72.3484 11.4535H69.1262V21.2394H71.7004L71.5514 15.2163H71.744L74.5933 21.2394H77.6571V11.4535H75.0829L75.231 17.4758H75.0393L72.3484 11.4535ZM65.6991 19.0114V11.4535H62.7704V19.0826C62.7704 19.4322 62.4342 19.7164 62.0281 19.7164C61.6222 19.7164 61.285 19.4321 61.285 19.0826V11.4535H58.3554V19.0114C58.3554 20.4257 60.0054 21.5619 62.0281 21.5619C64.0492 21.5619 65.6991 20.4258 65.6991 19.0114ZM39.5948 16.8437H39.3726L38.4458 11.4536H34.0587L33.8505 21.2395H36.4203V13.7113H36.6712L38.1748 21.2395H40.7866L42.291 13.7113H42.541V21.2395H45.1108L44.9017 11.4536H40.3902L39.5887 16.8437H39.5948ZM27.3326 13.6442L28.4164 21.2395H31.2596L29.4207 11.4536H25.0555L23.2174 21.2395H26.059L27.1436 13.6442H27.3326ZM47.9585 2.45837C75.813 -2.32434 99.5322 0.0836138 100.935 7.83915C101.647 11.7648 96.4989 16.31 87.629 20.4597C87.9234 20.1152 88.0829 19.6817 88.0829 19.2506V15.8339H84.6385V17.1676H85.3109V19.0885C85.3109 19.439 84.9721 19.7223 84.5626 19.7223C84.155 19.7223 83.817 19.4388 83.817 19.0885V13.4854C83.817 13.1358 84.155 12.8525 84.5626 12.8525C84.9721 12.8525 85.3109 13.136 85.3109 13.4854V14.4068H88.0829V13.7433C88.0829 12.0294 87.0924 11.1292 84.5626 11.1292C82.0755 11.1292 81.207 12.3459 81.207 13.6312V19.2505C81.207 20.5359 82.7148 21.5684 84.5626 21.5684C84.7648 21.5684 84.9642 21.5565 85.1568 21.5327L85.1523 21.5675C76.7241 25.1718 65.5275 28.3967 53.0424 30.5415C25.1888 35.3245 1.46779 32.9166 0.0652745 25.1601C-0.658643 21.1657 4.684 16.5306 13.8423 12.3197C13.79 12.4589 13.7159 12.699 13.6855 12.8686C13.6288 13.1791 13.5932 13.5711 13.5932 13.9844C13.5932 14.7386 13.7056 15.3878 13.8676 15.6847C14.0331 15.9995 14.5566 16.6816 16.0603 17.3731C17.5316 18.0501 17.6073 18.2894 17.6962 18.6168C17.7189 18.6932 17.7294 18.7746 17.7294 18.8587C17.7294 19.3517 17.3322 19.7513 16.8434 19.7513C16.2702 19.7513 16.0359 19.5103 16.0359 18.8587V18.1061H13.3406V19.4899C13.3406 20.7514 14.7867 21.5609 16.8852 21.5609C19.2155 21.5609 20.1554 20.4562 20.3348 19.5806C20.3645 19.377 20.3846 19.0461 20.3846 18.767C20.3846 18.3827 20.375 18.1061 20.3227 17.731C20.2174 16.4779 19.0656 15.8094 18.0247 15.4003C16.5516 14.8199 16.1561 14.4942 16.0464 13.9749C15.9975 13.8222 16.0089 13.5066 16.0464 13.3504C16.123 13.0883 16.4654 12.8905 16.8652 12.8905C17.3218 12.8905 17.6919 13.2019 17.6919 13.5888V14.4033H20.2225V13.1883C20.2225 11.6153 18.4411 11.1275 16.8965 11.1308C16.8304 11.1308 16.5847 11.1469 16.5193 11.1478C24.8673 7.65852 35.8018 4.54637 47.9585 2.45837Z" fill="#C9C9C9"/>
</g>
<defs>
<clipPath id="clip0">
</clipPath>
</defs>
</svg>
