<svg width="124" height="40" viewBox="0 0 124 40" fill="none" xmlns="http://www.w3.org/2000/svg">
<path fill-rule="evenodd" clip-rule="evenodd" d="M56.1996 14.7087C56.0189 13.7045 55.6573 12.6417 53.3685 12.6417C51.079 12.6417 50.7779 13.498 50.7779 14.1773C50.7779 16.6579 60.8089 14.8566 60.8089 20.645C60.8089 25.2221 56.2903 26.0488 53.7905 26.0488C50.1455 26.0488 46.1995 24.8079 46.0786 20.6155H50.4164C50.4164 21.9439 51.2597 22.9185 53.9108 22.9185C56.08 22.9185 56.5914 21.8853 56.5914 21.2948C56.5914 18.6663 46.6511 20.6451 46.6511 14.7678C46.6511 12.4648 48.1269 9.51142 53.1272 9.51142C56.2601 9.51142 59.9951 10.2789 60.3258 14.7087H56.1996ZM84.4849 25.6351H80.2668V16.0969C80.2668 13.7643 79.2124 12.9962 77.9773 12.9962C75.8692 12.9962 75.1165 14.3542 75.1165 16.2153V25.6358H70.8984V16.1857C70.8984 14.8566 70.8984 12.9962 68.3677 12.9962C66.3799 12.9962 65.7481 14.3542 65.7481 16.0673V25.6358H61.5307V9.92443H65.5674V12.2281H65.6278C66.1695 11.1949 67.3442 9.51142 70.176 9.51142C72.4951 9.51142 73.5494 10.3387 74.634 12.0216C75.177 11.2541 76.3517 9.51142 78.912 9.51142C82.0442 9.51142 84.4843 11.3127 84.4843 14.7678L84.4849 25.6351ZM100.86 21.0285C99.7459 24.8079 96.5532 26.0488 93.8115 26.0488C89.2936 26.0488 85.8294 23.9227 85.8294 17.4556C85.8294 15.5655 86.4913 9.51142 93.5098 9.51142C96.6735 9.51142 101.041 10.9878 101.041 18.1638V18.9017H90.0456C90.1665 20.0828 90.4071 22.7409 93.8115 22.7409C94.9861 22.7409 96.191 22.1504 96.523 21.0285H100.86ZM96.7037 16.2153C96.4625 13.6749 94.8054 12.9074 93.4493 12.9074C91.4615 12.9074 90.4071 14.1477 90.1659 16.2153H96.7037ZM118.059 9.39821V23.7078C118.059 26.3203 117.848 30.6638 109.956 30.6638C106.643 30.6638 103.149 29.3296 102.968 26.1208H107.547C107.727 26.887 108.059 27.6538 110.498 27.6538C112.759 27.6538 113.843 26.6316 113.843 24.1896V22.373L113.782 22.3163C113.089 23.4807 112.034 24.5872 109.504 24.5872C105.649 24.5872 102.606 22.0603 102.606 16.7794C102.606 11.5552 105.738 9 109.264 9C112.246 9 113.451 10.6469 113.963 11.6401H114.024V9.39756L118.059 9.39821ZM110.288 21.2375C113.149 21.2375 113.873 18.9377 113.873 16.865C113.873 14.4237 112.607 12.4359 110.258 12.4359C108.691 12.4359 106.944 13.5147 106.944 17.0355C106.944 18.9667 107.788 21.2375 110.288 21.2375ZM15.2735 25.5271C15.2735 26.8894 14.7323 28.196 13.769 29.1593C12.8057 30.1226 11.4991 30.6638 10.1368 30.6638C8.7744 30.6638 7.46785 30.1226 6.50452 29.1593C5.54119 28.196 5 26.8894 5 25.5271C5 24.1647 5.54119 22.8582 6.50452 21.8948C7.46785 20.9315 8.7744 20.3903 10.1368 20.3903C11.4991 20.3903 12.8057 20.9315 13.769 21.8948C14.7323 22.8582 15.2735 24.1647 15.2735 25.5271Z" fill="#C9C9C9"/>
<path fill-rule="evenodd" clip-rule="evenodd" d="M25.547 25.5271C25.547 26.2017 25.4141 26.8696 25.156 27.4929C24.8978 28.1161 24.5195 28.6823 24.0425 29.1593C23.5655 29.6363 22.9992 30.0147 22.376 30.2728C21.7528 30.531 21.0848 30.6638 20.4102 30.6638C19.7356 30.6638 19.0677 30.531 18.4445 30.2728C17.8212 30.0147 17.255 29.6363 16.778 29.1593C16.301 28.6823 15.9226 28.1161 15.6645 27.4929C15.4063 26.8696 15.2734 26.2017 15.2734 25.5271C15.2734 24.1648 15.8146 22.8582 16.778 21.8949C17.7413 20.9316 19.0479 20.3904 20.4102 20.3904C21.7726 20.3904 23.0791 20.9316 24.0425 21.8949C25.0058 22.8582 25.547 24.1648 25.547 25.5271Z" fill="#C9C9C9"/>
<path fill-rule="evenodd" clip-rule="evenodd" d="M35.8199 25.5271C35.8199 26.8894 35.2787 28.196 34.3153 29.1593C33.352 30.1226 32.0455 30.6638 30.6831 30.6638C29.3207 30.6638 28.0142 30.1226 27.0509 29.1593C26.0875 28.196 25.5463 26.8894 25.5463 25.5271C25.5463 24.1647 26.0875 22.8582 27.0509 21.8948C28.0142 20.9315 29.3207 20.3903 30.6831 20.3903C32.0455 20.3903 33.352 20.9315 34.3153 21.8948C35.2787 22.8582 35.8199 24.1647 35.8199 25.5271ZM25.547 15.2548C25.547 18.0918 23.2472 20.391 20.4102 20.391C19.3942 20.391 18.4011 20.0897 17.5563 19.5252C16.7116 18.9607 16.0532 18.1585 15.6644 17.2198C15.2756 16.2811 15.1739 15.2483 15.3722 14.2518C15.5704 13.2554 16.0597 12.3401 16.7782 11.6217C17.4966 10.9034 18.412 10.4142 19.4085 10.2161C20.4049 10.0179 21.4378 10.1197 22.3764 10.5086C23.315 10.8975 24.1172 11.556 24.6816 12.4008C25.2459 13.2457 25.5471 14.2389 25.547 15.2548Z" fill="#C9C9C9"/>
<path fill-rule="evenodd" clip-rule="evenodd" d="M35.8178 15.2548C35.8178 15.9294 35.6849 16.5973 35.4268 17.2205C35.1686 17.8437 34.7902 18.4099 34.3132 18.8868C33.8362 19.3638 33.27 19.7421 32.6467 20.0002C32.0235 20.2583 31.3556 20.391 30.681 20.391C29.3189 20.391 28.0125 19.8498 27.0493 18.8866C26.086 17.9234 25.5449 16.617 25.5449 15.2548C25.5449 13.8926 26.086 12.5862 27.0493 11.623C28.0125 10.6598 29.3189 10.1187 30.681 10.1187C31.3556 10.1185 32.0236 10.2512 32.6468 10.5093C33.2701 10.7673 33.8364 11.1456 34.3134 11.6226C34.7904 12.0995 35.1688 12.6658 35.4269 13.289C35.6851 13.9123 35.8179 14.5802 35.8178 15.2548Z" fill="#C9C9C9"/>
<path fill-rule="evenodd" clip-rule="evenodd" d="M46.0913 15.2549C46.102 15.9362 45.977 16.6129 45.7237 17.2454C45.4703 17.878 45.0936 18.4538 44.6156 18.9394C44.1375 19.425 43.5676 19.8106 42.9391 20.0737C42.3105 20.3369 41.6359 20.4724 40.9545 20.4723C40.2731 20.4722 39.5985 20.3366 38.97 20.0732C38.3416 19.8099 37.7717 19.4242 37.2938 18.9385C36.8159 18.4528 36.4393 17.8768 36.1861 17.2442C35.9329 16.6116 35.8081 15.9349 35.819 15.2536C35.8405 13.9055 36.3912 12.6199 37.3522 11.6742C38.3132 10.7285 39.6075 10.1986 40.9558 10.1987C42.3041 10.1989 43.5982 10.7292 44.559 11.6751C45.5198 12.621 46.0701 13.9068 46.0913 15.2549Z" fill="#C9C9C9"/>
</svg>
