<svg width="30" height="30" viewBox="0 0 30 30" fill="none" xmlns="http://www.w3.org/2000/svg">
<path d="M17.7627 6.46496L10.5062 13.807C10.3458 13.9661 10.2185 14.1554 10.1316 14.364C10.0447 14.5725 10 14.7962 10 15.0221C10 15.2481 10.0447 15.4718 10.1316 15.6803C10.2185 15.8889 10.3458 16.0782 10.5062 16.2373L17.7627 23.4938C17.9218 23.6542 18.1111 23.7815 18.3197 23.8684C18.5282 23.9553 18.7519 24 18.9779 24C19.2038 24 19.4275 23.9553 19.636 23.8684C19.8446 23.7815 20.0339 23.6542 20.193 23.4938C20.5117 23.1731 20.6906 22.7393 20.6906 22.2872C20.6906 21.8351 20.5117 21.4013 20.193 21.0806L14.1345 15.0221L20.193 8.96366C20.5092 8.64489 20.6874 8.21463 20.6893 7.76565C20.6906 7.54042 20.6474 7.31714 20.5623 7.10862C20.4771 6.9001 20.3516 6.71045 20.193 6.55053C20.0396 6.38439 19.8548 6.2503 19.6493 6.15598C19.4438 6.06167 19.2217 6.00902 18.9957 6.00106C18.7697 5.9931 18.5444 6.03 18.3328 6.10963C18.1212 6.18925 17.9274 6.31002 17.7627 6.46496Z" fill="#AAAAAA" fill-opacity="0.2"/>
</svg>
