<svg width="38" height="38" viewBox="0 0 38 38" fill="none" xmlns="http://www.w3.org/2000/svg">
<path d="M19.4538 23.8048L19.4537 23.8049L19.4575 23.8141C19.5075 23.9358 19.5075 24.0724 19.4575 24.1941L19.4574 24.1941L19.4538 24.2033C19.4306 24.2633 19.396 24.3182 19.3519 24.3651L14.3564 29.3605L14.355 29.362C14.3085 29.4089 14.2532 29.4461 14.1923 29.4714C14.1314 29.4968 14.066 29.5099 14 29.5099C13.934 29.5099 13.8686 29.4968 13.8077 29.4714C13.7468 29.4461 13.6915 29.4089 13.645 29.362L13.6421 29.3591C13.5952 29.3126 13.558 29.2573 13.5327 29.1964C13.5073 29.1354 13.4942 29.0701 13.4942 29.0041C13.4942 28.9381 13.5073 28.8727 13.5327 28.8118C13.558 28.7509 13.5952 28.6956 13.6421 28.6491L13.643 28.6482L16.943 25.3582L17.7997 24.5041H16.59H9C8.86739 24.5041 8.74022 24.4514 8.64645 24.3576C8.55268 24.2639 8.5 24.1367 8.5 24.0041C8.5 23.8715 8.55268 23.7443 8.64645 23.6505C8.74022 23.5568 8.86739 23.5041 9 23.5041H16.59H17.7997L16.943 22.65L13.6436 19.3605C13.6435 19.3605 13.6434 19.3604 13.6434 19.3604C13.549 19.2659 13.4959 19.1377 13.4959 19.0041C13.4959 18.9379 13.5089 18.8723 13.5343 18.8112C13.5596 18.75 13.5967 18.6945 13.6436 18.6476C13.7381 18.5531 13.8663 18.5 14 18.5C14.0662 18.5 14.1317 18.513 14.1929 18.5384C14.2541 18.5637 14.3096 18.6008 14.3564 18.6476L14.7083 18.2958L14.3564 18.6476L19.3519 23.6431C19.396 23.69 19.4306 23.7449 19.4538 23.8048Z" fill="#AAAAAA" stroke="#AAAAAA"/>
<path d="M18.5403 13.8048L18.5404 13.8049L18.5366 13.8141C18.4866 13.9358 18.4866 14.0724 18.5366 14.1941L18.5367 14.1941L18.5403 14.2033C18.5636 14.2633 18.5982 14.3182 18.6422 14.3651L23.6377 19.3605L23.6391 19.362C23.6856 19.4089 23.7409 19.4461 23.8019 19.4714C23.8628 19.4968 23.9281 19.5099 23.9941 19.5099C24.0601 19.5099 24.1255 19.4968 24.1864 19.4714C24.2474 19.4461 24.3027 19.4089 24.3491 19.362L24.352 19.3591C24.3989 19.3126 24.4361 19.2573 24.4615 19.1964C24.4869 19.1354 24.4999 19.0701 24.4999 19.0041C24.4999 18.9381 24.4869 18.8727 24.4615 18.8118C24.4361 18.7509 24.3989 18.6956 24.352 18.6491L24.3511 18.6482L21.0511 15.3582L20.1944 14.5041H21.4041H28.9941C29.1267 14.5041 29.2539 14.4514 29.3477 14.3576C29.4415 14.2639 29.4941 14.1367 29.4941 14.0041C29.4941 13.8715 29.4415 13.7443 29.3477 13.6505C29.2539 13.5568 29.1267 13.5041 28.9941 13.5041H21.4041H20.1944L21.0511 12.65L24.3506 9.36054C24.3506 9.36048 24.3507 9.36043 24.3507 9.36038C24.4452 9.26586 24.4982 9.13771 24.4982 9.00409C24.4982 8.93789 24.4852 8.87234 24.4599 8.81118C24.4345 8.75003 24.3974 8.69445 24.3506 8.64765C24.2561 8.55311 24.1278 8.5 23.9941 8.5C23.9279 8.5 23.8624 8.51304 23.8012 8.53837C23.7401 8.56371 23.6845 8.60084 23.6377 8.64764L23.2858 8.29578L23.6377 8.64765L18.6422 13.6431C18.5982 13.69 18.5636 13.7449 18.5403 13.8048Z" fill="#AAAAAA" stroke="#AAAAAA"/>
</svg>
